<svg width="46" height="48" viewBox="0 0 46 48" fill="none" xmlns="http://www.w3.org/2000/svg">
<g filter="url(#filter0_d_7_1097)">
<mask id="mask0_7_1097" style="mask-type:alpha" maskUnits="userSpaceOnUse" x="2" y="0" width="42" height="40">
<path d="M43.5686 20C43.5686 31.0457 34.2632 40 22.7843 40C11.3055 40 2 31.0457 2 20C2 8.9543 11.3055 0 22.7843 0C34.2632 0 43.5686 8.9543 43.5686 20Z" fill="#541717"/>
<path d="M43.5686 20C43.5686 31.0457 34.2632 40 22.7843 40C11.3055 40 2 31.0457 2 20C2 8.9543 11.3055 0 22.7843 0C34.2632 0 43.5686 8.9543 43.5686 20Z" stroke="black"/>
</mask>
<g mask="url(#mask0_7_1097)">
<path d="M29.78 20.2722C30.0421 20.0404 30.3939 19.9544 30.6948 19.9653C31.3495 19.989 31.6267 20.3185 31.7459 20.5118C32.1014 21.0887 32.0818 22.1496 31.8387 22.8051C31.6667 23.2693 31.385 23.9794 30.7109 24.4868C30.4331 24.6959 30.0252 24.8329 29.6358 24.7704L29.5329 24.7539C29.4076 25.1324 29.2535 25.5029 29.1594 25.6828C28.8877 26.3587 27.4101 28.7021 25.5379 29.6642C25.5444 30.0263 25.5326 30.1575 25.5685 30.6135C25.5845 30.8184 25.6017 31.0398 25.6835 31.2398C25.7932 31.5027 25.941 31.7304 26.1785 31.9081C26.6815 32.2839 27.1984 32.4636 27.8351 32.6856C27.8351 32.6856 28.3411 32.8593 28.5744 32.9445C28.4785 32.9974 28.4078 33.0289 28.3183 33.0775C26.603 34.0107 24.0316 34.5336 21.8258 34.5796C19.6177 34.5329 17.0323 34.0084 15.3187 33.0709C15.2194 33.0167 15.1566 32.9831 15.0638 32.922C15.3129 32.831 15.7279 32.6856 15.7279 32.6856C16.3646 32.4634 16.8816 32.2839 17.3845 31.9081C17.622 31.7304 17.7698 31.5027 17.8795 31.2398C17.9613 31.0398 17.9785 30.8184 17.9945 30.6135C18.0278 30.1909 18.0201 30.0471 18.0239 29.7401C17.1491 29.3496 16.3648 28.7276 15.6188 27.893C14.6555 26.815 14.1093 25.6556 13.8088 24.6954C13.3932 24.7933 12.945 24.6486 12.648 24.4215C11.9783 23.9091 11.7026 23.1971 11.5343 22.7316C11.2969 22.0743 11.2861 21.0134 11.6465 20.439C11.7671 20.2465 12.0472 19.9191 12.702 19.9001C12.9625 19.8925 13.2607 19.958 13.5047 20.1271C15.29 18.8939 17.3424 17.1015 19.1844 15.4233C19.1209 15.9209 18.8987 16.7716 18.8626 17.2864C18.8481 17.4934 18.8957 17.5649 19.065 17.6393C19.1958 17.6835 19.3872 17.6592 19.5167 17.6201C21.7172 16.9564 23.5457 15.6887 24.9093 13.9779C25.2046 15.0304 25.6234 16.3401 25.9879 16.9783C26.8896 18.5572 28.4196 19.887 29.7799 20.2719" fill="white"/>
<path d="M12.6468 26.4796C13.4302 26.4415 14.0376 25.8153 13.9966 25.0882L13.6403 18.7771C13.5992 18.05 12.9247 17.4862 12.1412 17.5242C11.356 17.5624 10.7529 18.1835 10.794 18.9122C10.8583 20.0515 11.0863 24.0887 11.1509 25.2306C11.192 25.9594 11.8616 26.5178 12.6468 26.4796Z" fill="white"/>
<path d="M30.411 26.4796C29.6276 26.4415 29.0201 25.8153 29.0611 25.0882L29.4174 18.7771C29.4586 18.05 30.133 17.4862 30.9166 17.5242C31.7017 17.5624 32.3048 18.1835 32.2637 18.9122C32.1994 20.0515 31.9715 24.0887 31.9069 25.2306C31.8658 25.9594 31.196 26.5178 30.4108 26.4796H30.411Z" fill="white"/>
<path d="M36.0492 19.6168C35.9891 19.6038 35.9273 19.6005 35.8654 19.6093C35.7645 19.6226 35.667 19.6753 35.6 19.7503C35.6 19.7503 35.5986 19.7519 35.5961 19.7553C35.5102 19.4613 35.4054 19.1608 35.1765 18.9443C34.935 18.7161 34.53 18.6489 34.262 18.8499C34.0316 19.0227 33.9801 19.3038 33.9649 19.5783C33.9649 19.5783 33.9603 19.5943 33.9526 19.6211C33.7958 19.3205 33.5236 19.1064 33.1502 19.0618C32.6898 19.0068 32.3167 19.3958 32.3035 19.8263C32.3035 19.8263 32.3011 19.9027 32.2976 20.0205C32.118 19.9156 31.9282 19.9289 31.7836 19.9626C31.5216 20.0234 31.3436 20.4942 31.3519 20.6611C31.3828 21.2726 31.515 22.6029 31.6005 23.2468C31.7056 24.0381 31.3989 24.8252 31.0359 25.5478C30.673 26.2704 30.3301 26.8621 30.1647 27.6444C29.8864 28.9598 30.6581 30.2614 31.6084 31.2258C32.8083 31.0494 34.0085 30.8733 35.2085 30.697C35.3662 30.6739 35.5311 30.6521 35.6935 30.6467C36.7285 28.486 37.3091 26.6326 37.9535 24.4126C37.7419 22.9985 37.3204 21.6113 36.7108 20.3101C36.6286 20.1339 36.5404 19.9559 36.4014 19.8168C36.3056 19.7209 36.1819 19.6453 36.0492 19.6168Z" fill="white"/>
<path d="M40.8917 45.0472C40.1419 42.1643 37.8825 34.1254 36.9211 31.5796C36.8133 31.2942 36.6917 30.9911 36.4276 30.8138C36.0875 30.5855 35.6231 30.6363 35.2085 30.6971C33.5119 30.9463 31.8151 31.1955 30.1186 31.4445C29.9428 31.4703 29.75 31.5051 29.6396 31.6346C29.5209 31.7742 29.5405 31.9723 29.5664 32.1485C29.6086 32.4381 29.6531 32.7275 29.6963 33.017C29.3951 32.9411 29.0911 32.8729 28.7851 32.8167C28.5574 32.9658 28.4618 32.9995 28.3183 33.0777C26.603 34.0108 24.0316 34.5338 21.8258 34.5797C19.6177 34.533 17.0324 34.0086 15.3187 33.0711C15.152 32.9798 15.088 32.9475 14.8131 32.7436C13.3134 32.9509 11.8125 33.4627 10.4957 34.0766C9.34662 34.6125 8.32932 35.2809 7.50994 36.2099C5.41459 38.5856 5.03447 41.8446 4.73965 44.9018V45.1959L40.8917 45.0467V45.0472Z" fill="white"/>
<path d="M25.5381 29.6645C25.5445 30.0266 25.5328 30.1578 25.5686 30.6138C25.5847 30.8187 25.6019 31.0401 25.6837 31.2401C25.7934 31.503 25.9412 31.7307 26.1787 31.9084C26.6817 32.2842 27.1985 32.4639 27.8352 32.6859C27.8352 32.6859 28.3412 32.8595 28.5746 32.9448C28.6324 32.9129 28.6994 32.8731 28.7852 32.8168C29.0911 32.8731 29.3953 32.9414 29.6965 33.0171C29.6533 32.7275 29.6088 32.4382 29.5665 32.1487C29.5408 31.9724 29.5211 31.7744 29.6398 31.6348C29.7502 31.5052 29.943 31.4705 30.1187 31.4447C30.6153 31.3718 31.1119 31.2988 31.6084 31.2259C30.6582 30.2616 29.8866 28.9599 30.1648 27.6446C30.2554 27.2163 30.4002 26.8453 30.5713 26.4786C30.5184 26.4814 30.4649 26.4823 30.4108 26.4796C29.8462 26.4522 29.3745 26.1186 29.1695 25.6626C29.1662 25.669 29.1625 25.6769 29.1594 25.6831C28.8877 26.359 27.4101 28.7022 25.5379 29.6645H25.5381Z" fill="black"/>
<path d="M12.1412 17.5244C12.9245 17.4862 13.5992 18.05 13.6403 18.7773L13.7084 19.9842C15.4452 18.7579 17.4121 17.0384 19.1847 15.4235C19.1213 15.9211 18.8991 16.7718 18.8629 17.2865C18.8485 17.4935 18.896 17.5651 19.0654 17.6395C19.1961 17.6836 19.3875 17.6593 19.517 17.6203C21.7176 16.9565 23.546 15.6889 24.9096 13.9781C25.2049 15.0307 25.6237 16.3402 25.9883 16.9785C26.7941 18.3897 28.1018 19.5998 29.3419 20.1162L29.4176 18.7771C29.4587 18.05 30.1332 17.4862 30.9167 17.5242C31.4054 17.5479 31.8235 17.7977 32.0597 18.1586C32.0357 17.656 32.0065 17.2264 31.9854 16.9543C31.8092 14.6743 30.7026 12.1283 29.1102 10.7131C28.4761 10.1496 28.2565 9.86301 27.6403 9.52839L26.2183 8.87465C24.9012 8.37943 23.5293 8.05063 21.5807 8.05063C18.3858 8.05063 15.542 9.5773 14.2802 10.6979C12.5976 12.1921 11.4105 14.6795 11.0961 18.0291C11.3411 17.7393 11.7136 17.5448 12.1413 17.5241L12.1412 17.5244Z" fill="black"/>
<path d="M12.276 33.3623C13.0994 33.0826 13.9558 32.8625 14.8133 32.7439C14.9249 32.8267 15.0013 32.8805 15.0642 32.9223C15.3134 32.8313 15.7281 32.6859 15.7281 32.6859C16.3648 32.4637 16.8818 32.2842 17.3847 31.9084C17.6221 31.7307 17.7699 31.503 17.8797 31.2401C17.9615 31.0401 17.9786 30.8187 17.9947 30.6138C18.028 30.1912 18.0203 30.0474 18.0241 29.7404C17.1493 29.3499 16.365 28.7279 15.619 27.8933C14.8286 27.0087 14.3193 26.0697 13.9958 25.2306C13.9562 25.8954 13.3784 26.444 12.6466 26.4796C11.8615 26.5178 11.1917 25.9594 11.1505 25.2306C11.1214 24.7144 11.0588 23.6063 10.9931 22.4418C10.9082 24.6881 10.6668 26.3589 10.3532 27.3981C10.0861 28.2883 9.85784 29.771 9.84804 30.6755C9.83921 31.6739 10.7506 32.966 12.2758 33.3622L12.276 33.3623Z" fill="black"/>
<path d="M9.30195 19.5662C9.3124 19.5594 9.32268 19.5525 9.33328 19.5457C9.66633 19.3296 10.2229 19.1395 10.7516 19.112L10.8051 19.1092C10.8769 20.3816 11.0675 23.7558 11.1396 25.0336C10.5964 25.0685 9.9936 24.9303 9.62617 24.7417C8.66381 24.2475 8.01811 23.313 7.95641 22.2178C7.89601 21.1455 8.41928 20.1539 9.30212 19.5661L9.30195 19.5662Z" fill="black"/>
<path d="M12.374 33.0162C11.7786 32.8559 11.2598 32.5417 10.8575 32.1041C10.6821 31.9134 10.5358 31.6934 10.4248 31.4647C10.3813 31.3747 10.3402 31.2647 10.3085 31.1597C10.2788 31.0608 10.2496 30.9283 10.2436 30.8709C10.1859 30.3105 10.2876 29.7098 10.3718 29.1557C10.4652 28.5405 10.6028 27.9391 10.7698 27.338C10.9791 26.5837 11.095 25.8077 11.187 25.0347C11.21 24.8423 10.9934 24.6768 10.8014 24.6768C10.5739 24.6768 10.4388 24.8417 10.4158 25.0347C10.3321 25.7369 10.2208 26.4395 10.0325 27.1249C9.85979 27.7534 9.71551 28.3808 9.61944 29.024C9.52866 29.6326 9.40238 30.2953 9.47709 30.9107C9.54842 31.499 9.82058 32.0346 10.2128 32.497C10.7082 33.0814 11.4015 33.4998 12.1691 33.7065C12.6466 33.835 12.8505 33.1446 12.374 33.0162Z" fill="#211715"/>
<path d="M24.6501 30.3663C25.696 30.1469 26.5941 29.502 27.3264 28.8004C28.0137 28.1417 28.6115 27.3873 29.1027 26.5919C29.1947 26.4428 29.2831 26.2916 29.3639 26.137C29.3962 26.0751 29.4271 26.0125 29.4565 25.9492C29.4778 25.9033 29.4979 25.8569 29.5188 25.8109C29.5418 25.7597 29.5037 25.8444 29.5031 25.8461C29.5318 25.7827 29.5558 25.7375 29.5558 25.664C29.5558 25.2034 28.7846 25.2026 28.7846 25.664V25.6655L28.8373 25.4849C28.8149 25.5263 28.7973 25.5696 28.7788 25.6124C28.7563 25.6644 28.7597 25.654 28.7822 25.6069C28.7569 25.6597 28.7314 25.7123 28.7043 25.7643C28.6377 25.8924 28.5658 26.0181 28.4911 26.1422C28.2889 26.478 28.0653 26.8028 27.8266 27.1173C27.2769 27.8411 26.6253 28.5434 25.8448 29.0604C25.4134 29.3461 24.9602 29.5682 24.4454 29.6761C23.9615 29.7777 24.1664 30.4678 24.6504 30.3664L24.6501 30.3663Z" fill="#211715"/>
<path d="M13.6252 25.325C14.0264 26.363 14.6081 27.323 15.3692 28.1708C16.0428 28.9211 16.8481 29.605 17.8005 30.0367C18.318 30.2712 18.8647 30.4339 19.4341 30.5137C19.6397 30.5425 19.8486 30.4657 19.9084 30.2638C19.9585 30.0947 19.8462 29.8525 19.6391 29.8236C18.4446 29.6561 17.4215 29.1077 16.5676 28.3266C15.5875 27.4304 14.8334 26.3365 14.3689 25.1347C14.2987 24.953 14.1062 24.8308 13.8946 24.8848C13.7052 24.9331 13.5545 25.1422 13.6252 25.325Z" fill="#211715"/>
<path d="M24.563 14.1636C24.8394 15.1345 25.1196 16.1406 25.5951 17.0473C26.0859 17.9834 26.8324 18.8505 27.6815 19.5276C28.1267 19.8827 28.6117 20.1997 29.1472 20.4256C29.3366 20.5055 29.5622 20.4759 29.6748 20.2972C29.7717 20.1436 29.727 19.8879 29.5365 19.8075C28.3518 19.3077 27.3849 18.3811 26.6879 17.3769C25.9743 16.3487 25.6401 15.1446 25.3067 13.9731C25.1801 13.5282 24.4361 13.7171 24.563 14.1636Z" fill="#211715"/>
<path d="M24.5691 13.8067C23.8433 14.7105 22.9539 15.5106 21.9425 16.136C21.4178 16.4604 20.8616 16.7423 20.2825 16.9743C20.0094 17.0838 19.7287 17.1822 19.4452 17.2658C19.396 17.2803 19.3436 17.2992 19.2916 17.3033C19.3615 17.2977 19.1762 17.3126 19.1981 17.2998C19.1924 17.3031 19.1751 17.2821 19.2227 17.335C19.1978 17.3073 19.2633 17.3829 19.2472 17.3869C19.2464 17.3871 19.2575 17.1872 19.2588 17.1746C19.3211 16.586 19.4919 16.0106 19.5703 15.4235C19.6135 15.1003 19.1295 14.9724 18.9121 15.1704C17.4081 16.5401 15.8809 17.8948 14.25 19.1349C14.0889 19.2574 14.113 19.5138 14.25 19.641C14.4094 19.7889 14.6337 19.7638 14.7953 19.641C16.4262 18.4009 17.9533 17.0462 19.4574 15.6765L18.7991 15.4235C18.724 15.9862 18.55 16.589 18.4876 17.1746C18.4539 17.4907 18.526 17.7786 18.8493 17.9385C19.1929 18.1085 19.5867 17.9811 19.9251 17.8687C21.2788 17.4185 22.5249 16.7332 23.5989 15.8453C24.2083 15.3416 24.7478 14.7748 25.2353 14.1681C25.3598 14.013 25.2626 13.7683 25.0969 13.6784C24.9003 13.5716 24.694 13.6514 24.5691 13.8067Z" fill="#211715"/>
<path d="M27.4458 9.83842C27.998 10.1428 28.4226 10.5886 28.8778 11.0024C29.3329 11.4162 29.7164 11.8927 30.045 12.4006C30.7739 13.5273 31.2511 14.7951 31.4874 16.0891C31.6103 16.7621 31.6746 17.4762 31.6746 18.1589C31.6746 18.6195 32.4457 18.6203 32.4457 18.1589C32.4457 17.4984 32.3763 16.8158 32.2754 16.1625C32.1697 15.4778 31.9912 14.8024 31.7509 14.1478C31.2827 12.873 30.5899 11.6253 29.5811 10.6445C29.0513 10.1293 28.4993 9.58641 27.8349 9.22033C27.4072 8.98457 27.0191 9.60311 27.4458 9.83842Z" fill="#211715"/>
<path d="M11.481 18.029C11.481 17.6835 11.5578 17.3198 11.6137 16.9785C11.6725 16.6192 11.7437 16.2616 11.8287 15.9069C11.981 15.2718 12.1773 14.6451 12.4284 14.0374C12.8503 13.0165 13.4464 12.0351 14.2531 11.2328C15.0337 10.4563 16.0081 9.88001 17.0409 9.41789C18.3853 8.8162 19.8719 8.44281 21.3678 8.41179C23.0077 8.37779 24.5965 8.65172 26.116 9.21986C26.3093 9.29218 26.5397 9.14113 26.5903 8.96994C26.6507 8.76565 26.5149 8.60222 26.321 8.52974C24.9244 8.00753 23.4635 7.73226 21.9574 7.69812C20.2972 7.66039 18.6759 7.98144 17.153 8.58835C16.0094 9.04405 14.8912 9.65618 13.9901 10.4607C13.0939 11.2608 12.4121 12.2598 11.9199 13.3149C11.5932 14.0156 11.335 14.7398 11.1433 15.4822C11.0373 15.8929 10.9505 16.3079 10.8805 16.7253C10.8095 17.1482 10.7097 17.6003 10.7097 18.0293C10.7097 18.4899 11.4809 18.4907 11.4809 18.0293L11.481 18.029Z" fill="#211715"/>
<path d="M20.204 26.5414C20.6943 26.7816 21.2224 26.882 21.7768 26.8787C22.3388 26.8752 22.9084 26.7734 23.3589 26.4479C23.5234 26.329 23.4934 26.0666 23.3589 25.9418C23.1966 25.7912 22.9784 25.8226 22.8136 25.9418C22.929 25.8584 22.8337 25.9258 22.804 25.9434C22.7721 25.9623 22.7394 25.9798 22.7058 25.996C22.6804 26.0084 22.5628 26.0527 22.6635 26.0178C22.6186 26.0335 22.574 26.0497 22.5283 26.0634C22.2349 26.1508 22.0395 26.1646 21.7259 26.1629C21.6456 26.1625 21.5653 26.1599 21.4849 26.1549C21.4481 26.1525 21.4113 26.1498 21.3745 26.1464C21.3749 26.1464 21.2463 26.1304 21.3143 26.1401C21.1948 26.1229 21.0765 26.0994 20.9605 26.0673C20.911 26.0536 20.862 26.0384 20.8138 26.0215C20.7979 26.016 20.7825 26.0098 20.7664 26.0044C20.686 25.9777 20.844 26.04 20.7729 26.0065C20.7131 25.9783 20.6524 25.9524 20.5931 25.9233C20.409 25.8331 20.1738 25.8799 20.0655 26.0517C19.9636 26.2133 20.0192 26.4509 20.204 26.5414Z" fill="#211715"/>
<path d="M21.5929 23.0899C21.662 23.3344 21.7285 23.5829 21.768 23.8332L21.7542 23.7381C21.7589 23.7724 21.7609 23.8063 21.7573 23.8407L21.7711 23.7456C21.7685 23.7615 21.7646 23.7764 21.7589 23.7916L21.7977 23.7062C21.7926 23.7169 21.7873 23.7262 21.7802 23.7359L21.8405 23.6634C21.8323 23.6726 21.8244 23.6798 21.8143 23.6874L21.8924 23.6315C21.8721 23.6436 21.8508 23.6533 21.8289 23.6627L21.921 23.6266C21.8859 23.6401 21.8514 23.65 21.814 23.6555L21.9165 23.6427C21.8827 23.6464 21.8498 23.6461 21.8161 23.6425L21.9186 23.6553C21.8806 23.6504 21.8435 23.6419 21.8056 23.6372C21.698 23.6237 21.6066 23.62 21.5085 23.6732C21.4285 23.7166 21.3522 23.8018 21.3313 23.8871C21.3088 23.9786 21.3137 24.0815 21.3702 24.1628C21.4203 24.235 21.5044 24.3152 21.6006 24.3273C21.6845 24.3377 21.7661 24.3577 21.8514 24.3611C21.9812 24.3663 22.102 24.3298 22.218 24.2806C22.3607 24.2201 22.472 24.1024 22.51 23.9597C22.5421 23.8391 22.5281 23.7321 22.5061 23.6114C22.4624 23.3719 22.4028 23.1345 22.3364 22.8996C22.2852 22.7186 22.0587 22.5906 21.8622 22.6497C21.6613 22.7099 21.5379 22.8959 21.5929 23.0899Z" fill="#211715"/>
<path d="M17.3305 20.9908C17.1967 21.3943 17.284 22.3223 18.108 22.4013C19.1971 22.3952 19.2551 21.2732 18.8885 20.7456C18.5884 20.3136 17.7055 20.1341 17.3305 20.9908Z" fill="#211715"/>
<path d="M26.0521 20.9908C26.1859 21.3943 26.0987 22.3222 25.2748 22.4013C24.1857 22.3952 24.1277 21.2732 24.4943 20.7456C24.7944 20.3136 25.6771 20.1341 26.0522 20.9909L26.0521 20.9908Z" fill="#211715"/>
<path d="M5.12525 44.903C5.33347 42.7526 5.56 40.5352 6.47127 38.5249C6.91791 37.5397 7.54449 36.6141 8.37302 35.8674C9.25666 35.0709 10.3382 34.511 11.4569 34.0499C12.8306 33.4837 14.3169 33.0774 15.8239 33.0094C16.3179 32.987 16.3208 32.2712 15.8239 32.2936C14.3965 32.358 12.9977 32.6964 11.6765 33.1922C10.4501 33.6525 9.2618 34.2154 8.24546 35.0107C6.32073 36.5169 5.3619 38.7637 4.88956 41.0037C4.6182 42.2906 4.48051 43.5982 4.35423 44.903C4.3356 45.0958 4.54478 45.2609 4.73982 45.2609C4.96394 45.2609 5.10661 45.0963 5.12525 44.903Z" fill="#211715"/>
<path d="M11.6881 44.9261C11.5777 43.3741 11.4886 41.8206 11.4584 40.2651C11.4494 39.8051 10.6782 39.8036 10.6872 40.2651C10.7174 41.8204 10.8066 43.3739 10.9169 44.9261C10.9306 45.1191 11.0843 45.284 11.3025 45.284C11.5006 45.284 11.7019 45.12 11.6881 44.9261Z" fill="#211715"/>
<path d="M25.1548 29.8679C25.1572 30.3012 25.1523 30.7587 25.2621 31.1819C25.393 31.6868 25.7426 32.0731 26.1933 32.3625C26.8761 32.801 27.7053 33.0116 28.4721 33.29L28.38 32.6358C26.8327 33.4675 25.1014 33.9275 23.33 34.1222C22.4328 34.2208 21.5514 34.237 20.6522 34.1552C19.7246 34.0706 18.8027 33.909 17.9059 33.6726C16.9917 33.4317 16.0462 33.1187 15.2586 32.6133L15.1666 33.2675C15.9488 32.983 16.7928 32.7614 17.4751 32.2926C17.8855 32.0106 18.1989 31.6214 18.3095 31.1506C18.4071 30.7346 18.4063 30.2921 18.4087 29.8679C18.4113 29.4073 17.6401 29.4067 17.6376 29.8679C17.6356 30.2083 17.6401 30.561 17.5791 30.8973C17.5095 31.2811 17.2705 31.5664 16.9281 31.7777C16.3309 32.1463 15.6243 32.3362 14.9614 32.5774C14.6467 32.6919 14.5834 33.048 14.8694 33.2315C15.6094 33.7065 16.498 34.0193 17.3516 34.2666C18.2966 34.5402 19.2705 34.7186 20.2525 34.8301C21.1943 34.9372 22.1199 34.9549 23.0641 34.8653C24.0353 34.7731 25.001 34.6125 25.9406 34.3653C26.9342 34.1039 27.8759 33.7339 28.7692 33.2538C29.0792 33.0871 28.9722 32.7068 28.6771 32.5996C28.0277 32.3638 27.3385 32.1815 26.7415 31.8404C26.3843 31.6364 26.1068 31.3814 26.0056 30.9914C25.9124 30.6318 25.9279 30.2361 25.9259 29.8676C25.9234 29.4071 25.1522 29.4062 25.1548 29.8676V29.8679Z" fill="#211715"/>
<path d="M10.1732 19.3203C10.0473 16.8168 10.3461 14.2092 11.6896 11.9897C12.9347 9.93264 15.0008 8.35677 17.4099 7.61058C20.088 6.78104 23.0384 6.77895 25.7217 7.58687C28.1199 8.3089 30.2161 9.70583 31.5472 11.7107C32.8487 13.671 33.3519 15.9989 33.2304 18.2825C33.2143 18.584 33.1872 18.8848 33.151 19.1847C33.1279 19.377 33.3448 19.5425 33.5366 19.5425C33.7643 19.5425 33.8989 19.3776 33.9222 19.1847C34.2146 16.7555 33.8445 14.238 32.6374 12.0494C31.4188 9.83974 29.379 8.18677 26.9222 7.23794C24.1596 6.171 21.0563 6.00578 18.1594 6.66503C15.5106 7.26791 13.1871 8.70853 11.6057 10.775C9.93063 12.9639 9.36831 15.6972 9.3749 18.3386C9.3757 18.666 9.38566 18.9933 9.40205 19.3203C9.42519 19.779 10.1964 19.7816 10.1732 19.3203Z" fill="#211715"/>
<path d="M10.7516 18.7541C9.97979 18.8042 9.26099 19.0725 8.69723 19.5679C8.20223 20.0029 7.84524 20.5807 7.68024 21.1939C7.34189 22.4521 7.78563 23.8653 8.87749 24.6954C9.5203 25.1842 10.3199 25.4389 11.155 25.3893C11.3629 25.3769 11.5406 25.2336 11.5406 25.0314C11.5406 24.8472 11.3639 24.6611 11.155 24.6735C10.5715 24.7083 10.006 24.5758 9.52753 24.2623C9.10965 23.9883 8.77531 23.5897 8.57448 23.154C8.13973 22.2101 8.30586 21.0465 9.03976 20.2695C9.48286 19.8004 10.0759 19.5137 10.7514 19.4701C10.9592 19.4566 11.137 19.3153 11.137 19.1122C11.137 18.9289 10.9603 18.7407 10.7514 18.7543L10.7516 18.7541Z" fill="#211715"/>
<path d="M12.6468 26.8375C13.6541 26.7885 14.4275 25.9864 14.3803 25.0541C14.3609 24.6719 14.3371 24.2899 14.3156 23.9078C14.2383 22.538 14.1608 21.1682 14.0836 19.7984C14.0645 19.4611 14.0508 19.1231 14.0264 18.7861C13.9507 17.7408 12.9131 16.9731 11.7932 17.2114C11.2199 17.3334 10.7516 17.729 10.5339 18.2302C10.3747 18.5964 10.4118 18.9735 10.4335 19.3569C10.4806 20.19 10.5276 21.0231 10.5746 21.8564C10.6237 22.7274 10.6729 23.5982 10.722 24.4692C10.7405 24.7952 10.7368 25.1316 10.7931 25.4542C10.8825 25.9685 11.2636 26.4416 11.7715 26.6654C12.0467 26.7868 12.3415 26.8471 12.6468 26.8377C13.1418 26.8225 13.144 26.1066 12.6468 26.1219C12.2127 26.1353 11.8081 25.9333 11.6245 25.5581C11.5003 25.3043 11.5229 24.9962 11.5075 24.7227C11.4643 23.9576 11.4211 23.1926 11.3779 22.4275C11.3313 21.602 11.2847 20.7766 11.2381 19.9511C11.2214 19.6548 11.2047 19.3587 11.188 19.0624C11.1672 18.6957 11.2246 18.3638 11.5409 18.1106C12.1801 17.5989 13.1901 18.011 13.2549 18.7801C13.278 19.0555 13.286 19.3327 13.3016 19.6085C13.3728 20.8676 13.4438 22.1268 13.515 23.3859L13.5956 24.8152C13.6006 24.9047 13.6072 24.9943 13.6107 25.0838C13.6244 25.42 13.4804 25.7405 13.1811 25.9409C13.0267 26.0442 12.8376 26.1127 12.6468 26.1219C12.1531 26.1459 12.15 26.8618 12.6468 26.8377V26.8375Z" fill="#211715"/>
<path d="M32.5903 19.9765C32.6265 19.305 32.7717 18.5897 32.393 17.9782L32.4457 18.1587C32.4457 17.9834 32.283 17.8161 32.1618 17.6948C32.0256 17.5585 31.8564 17.4379 31.6773 17.3541C31.3221 17.1881 30.9318 17.1337 30.5396 17.191C29.8319 17.2942 29.2224 17.8274 29.0741 18.4793C28.9896 18.8509 29.0047 19.2537 28.9835 19.631C28.9727 19.821 28.9621 20.0109 28.9513 20.2009C28.8678 21.6785 28.7843 23.1561 28.7007 24.6336C28.6872 24.8723 28.658 25.1158 28.6895 25.3538C28.7052 25.4728 28.7316 25.5854 28.7727 25.6992L28.7843 25.6653C28.7823 25.7145 28.7933 25.7606 28.8175 25.8033C28.8384 25.8587 28.8681 25.913 28.8982 25.9646C28.9973 26.1353 29.1351 26.2949 29.2936 26.4213C29.6477 26.7041 30.101 26.8568 30.5694 26.8359C31.0634 26.8138 31.0663 26.0981 30.5694 26.1201C30.081 26.1419 29.6971 25.8941 29.5029 25.4847L29.5556 25.6653C29.5556 25.5262 29.4645 25.3954 29.4491 25.2558C29.4425 25.1958 29.4444 25.1354 29.4471 25.0753C29.4492 25.0268 29.4526 24.9782 29.4553 24.9297L29.4947 24.2336L29.6171 22.0683C29.6746 21.0507 29.7322 20.0331 29.7895 19.0156C29.8104 18.6458 29.8795 18.3041 30.2272 18.0678C30.7164 17.7354 31.4037 17.8696 31.7273 18.3378L31.6746 18.1572C31.6746 18.3064 31.7967 18.4361 31.8399 18.5776C31.8844 18.7231 31.8812 18.8648 31.8725 19.0145C31.8539 19.3351 31.8363 19.6557 31.8192 19.9765C31.7944 20.437 32.5656 20.4356 32.5903 19.9765Z" fill="#211715"/>
<path d="M31.267 40.35C30.8056 37.6997 30.3785 35.0444 29.9868 32.3845C29.969 32.2636 29.8528 31.9129 29.9855 31.837C30.0935 31.7752 30.2937 31.7791 30.4171 31.7609C30.5997 31.7341 30.7826 31.7072 30.9653 31.6804C31.6831 31.575 32.4009 31.4696 33.1188 31.3641C33.8236 31.2606 34.5282 31.1569 35.2331 31.0537C35.4868 31.0165 35.7669 30.9672 36.0201 31.0285C36.2547 31.0853 36.3738 31.2614 36.4642 31.4594C36.7108 32 36.8747 32.5851 37.0575 33.1461C37.2947 33.8741 37.5209 34.6052 37.7431 35.3372C38.2593 37.0385 38.7528 38.7457 39.2361 40.4552C39.6418 41.8906 40.0417 43.3277 40.4224 44.7691C40.4552 44.8933 40.4878 45.0176 40.5203 45.142C40.6368 45.5895 41.3806 45.4 41.264 44.9517C40.8927 43.525 40.4973 42.1033 40.0977 40.6831C39.5942 38.8931 39.0791 37.1058 38.5406 35.3245C38.3085 34.5569 38.0723 33.7903 37.8244 33.0268C37.6309 32.4308 37.4499 31.8194 37.196 31.2423C37.0686 30.9524 36.9048 30.6873 36.6226 30.5043C36.3628 30.336 36.0309 30.2809 35.7192 30.2878C35.3828 30.2952 35.0464 30.3604 34.7149 30.409C34.3494 30.4627 33.9841 30.5164 33.6186 30.5701C32.8747 30.6794 32.1307 30.7885 31.3868 30.8978C31.0213 30.9515 30.656 31.0052 30.2905 31.0589C29.9618 31.1072 29.604 31.136 29.3673 31.3813C29.1332 31.6239 29.1511 31.9429 29.1948 32.2433C29.2447 32.5866 29.2957 32.9297 29.3471 33.2728C29.4515 33.9713 29.5585 34.6695 29.6679 35.3673C29.8846 36.7507 30.1109 38.1329 30.3467 39.5136C30.4052 39.8556 30.4642 40.1977 30.5236 40.5396C30.5569 40.7307 30.8128 40.8368 30.9979 40.7896C31.2167 40.7338 31.3006 40.5408 31.2671 40.3494L31.267 40.35Z" fill="#211715"/>
<path d="M33.5966 23.3698C33.4664 22.4912 33.3193 21.609 33.1245 20.7405C33.0005 20.1873 32.6639 19.5561 31.9541 19.5808C31.4186 19.5995 31.0864 20.0011 30.9901 20.4657C30.9521 20.65 30.9758 20.8345 30.9897 21.0201C31.0072 21.2553 31.0277 21.4901 31.0496 21.725C31.0928 22.1882 31.14 22.6513 31.1979 23.1131C31.2729 23.7123 31.1788 24.254 30.9533 24.8189C30.7267 25.3872 30.4061 25.9197 30.1547 26.4786C29.8761 27.0982 29.673 27.7696 29.733 28.4469C29.7951 29.1503 30.0723 29.8112 30.4627 30.4122C30.7188 30.8061 31.3858 30.4468 31.1286 30.0508C30.8335 29.5966 30.5981 29.1029 30.5183 28.5735C30.4396 28.051 30.5551 27.5407 30.7403 27.0484C31.1383 25.9911 31.8416 25.0585 31.9837 23.9226C32.0399 23.4728 31.956 23.0281 31.9072 22.5814C31.8584 22.1346 31.8142 21.6827 31.7774 21.2326C31.7628 21.0543 31.744 20.8747 31.7393 20.6958C31.7385 20.6664 31.7366 20.6379 31.7398 20.6086C31.7327 20.6751 31.7497 20.5884 31.7563 20.5664C31.7817 20.4829 31.8053 20.4274 31.8564 20.3564C31.8704 20.337 31.8796 20.3272 31.9069 20.2988C31.9331 20.2719 31.8702 20.3053 31.9059 20.3036C31.9213 20.3029 31.9247 20.2948 31.9769 20.2966C31.9989 20.2974 32.0137 20.29 32.0467 20.3008C32.2574 20.3692 32.3188 20.6706 32.3604 20.8433C32.5759 21.7368 32.7184 22.6537 32.8525 23.5602C32.881 23.7518 33.1451 23.8565 33.3268 23.8101C33.5493 23.7533 33.6247 23.5621 33.5961 23.3699L33.5966 23.3698Z" fill="#211715"/>
<path d="M32.6891 19.8263C32.7121 19.4683 33.0728 19.3047 33.3856 19.5197C33.6338 19.6902 33.6889 19.9889 33.758 20.2503C33.9688 21.0482 34.148 21.8543 34.3118 22.6615C34.4177 23.1825 34.5152 23.7052 34.5928 24.2304C34.6211 24.422 34.8854 24.5267 35.0671 24.4803C35.2898 24.4235 35.3648 24.2323 35.3364 24.0401C35.1794 22.9782 34.9524 21.9241 34.7045 20.8776C34.5147 20.0765 34.3846 18.9364 33.3369 18.7302C32.5691 18.5791 31.962 19.1349 31.9178 19.8262C31.8884 20.2864 32.6596 20.2847 32.689 19.8262L32.6891 19.8263Z" fill="#211715"/>
<path d="M34.3505 19.5785C34.3602 19.4297 34.3679 19.1996 34.5265 19.1149C34.6738 19.0361 34.8524 19.1331 34.9474 19.2413C35.0962 19.4112 35.1599 19.6335 35.2212 19.8402C35.3063 20.1278 35.3829 20.418 35.4567 20.7083C35.7534 21.8752 35.98 23.0559 36.2063 24.2357C36.2428 24.4261 36.4933 24.5335 36.6806 24.4856C36.8969 24.4305 36.9865 24.2363 36.9499 24.0454C36.6732 22.6038 36.3967 21.1594 35.9915 19.7431C35.8212 19.1477 35.5282 18.4769 34.7801 18.3846C34.4455 18.3433 34.1086 18.4498 33.8886 18.6921C33.6599 18.9441 33.5998 19.2585 33.579 19.5785C33.5493 20.0385 34.3205 20.037 34.3502 19.5785H34.3505Z" fill="#211715"/>
<path d="M37.33 25.1738C36.8585 26.7545 36.3302 28.318 35.654 29.8346C35.5743 30.0133 35.7401 30.2282 35.9233 30.2748C36.145 30.3314 36.3177 30.2042 36.3975 30.0249C37.0738 28.5082 37.602 26.9449 38.0736 25.3641C38.2061 24.9196 37.4626 24.7297 37.33 25.1738Z" fill="#211715"/>
<path d="M35.8725 20.0035C35.9422 19.9361 36.0195 19.9714 36.1071 20.0497C36.2444 20.1726 36.3183 20.3631 36.3926 20.5223C36.5606 20.8825 36.7095 21.2508 36.8453 21.6226C37.1236 22.3844 37.3369 23.1654 37.4886 23.9573C37.5251 24.1478 37.7755 24.2551 37.9629 24.2072C38.1791 24.1521 38.2688 23.9579 38.2321 23.7671C38.0459 22.7944 37.7654 21.8388 37.3888 20.9146C37.2108 20.4778 37.0453 19.9744 36.7185 19.6116C36.3657 19.22 35.7318 19.1067 35.3272 19.4974C34.9832 19.8296 35.5277 20.3363 35.8725 20.0035Z" fill="#211715"/>
</g>
</g>
<defs>
<filter id="filter0_d_7_1097" x="0.353073" y="6.27448" width="44.9233" height="41.7255" filterUnits="userSpaceOnUse" color-interpolation-filters="sRGB">
<feFlood flood-opacity="0" result="BackgroundImageFix"/>
<feColorMatrix in="SourceAlpha" type="matrix" values="0 0 0 0 0 0 0 0 0 0 0 0 0 0 0 0 0 0 127 0" result="hardAlpha"/>
<feOffset dy="4"/>
<feGaussianBlur stdDeviation="2"/>
<feComposite in2="hardAlpha" operator="out"/>
<feColorMatrix type="matrix" values="0 0 0 0 0 0 0 0 0 0 0 0 0 0 0 0 0 0 0.25 0"/>
<feBlend mode="normal" in2="BackgroundImageFix" result="effect1_dropShadow_7_1097"/>
<feBlend mode="normal" in="SourceGraphic" in2="effect1_dropShadow_7_1097" result="shape"/>
</filter>
</defs>
</svg>
