<svg width="1005" height="698" viewBox="0 10 1005 1000" fill="none" xmlns="http://www.w3.org/2000/svg">
<rect x="12" width="993" height="998" fill="white"/>
<path fill-rule="evenodd" clip-rule="evenodd" d="M522.5 412.5L892 634L509.5 841.5L127.5 634L522.5 412.5Z" fill="#E1FFFF"/>
<path d="M892 634L509.5 841.5V896.5L892 694.5V634Z" fill="#3E3E3E"/>
<path d="M509.5 841.5L127.5 634V694.5L509.5 896.5V841.5Z" fill="#E1FFFF"/>
<path d="M127.5 634L509.5 841.5M127.5 634V694.5L509.5 896.5M127.5 634L522.5 412.5L892 634M509.5 841.5L892 634M509.5 841.5V896.5M892 634V694.5L509.5 896.5" stroke="black"/>
<ellipse cx="319" cy="649" rx="40" ry="18" fill="black" fill-opacity="0.6"/>
<ellipse cx="780" cy="665" rx="40" ry="18" fill="black" fill-opacity="0.6"/>
<g clip-path="url(#clip0_0_1)">
<path d="M305.52 487.455C305.455 487.921 305.287 488.366 305.028 488.758C304.77 489.151 304.428 489.482 304.026 489.726C303.46 490.025 302.8 490.092 302.185 489.914C301.765 489.802 301.377 489.592 301.053 489.301C300.729 489.011 300.478 488.648 300.321 488.243C300.098 487.595 300.085 486.894 300.285 486.239C300.486 485.584 300.889 485.009 301.436 484.597C301.967 484.227 302.619 484.071 303.261 484.162C303.902 484.252 304.486 484.582 304.894 485.085C305.167 485.409 305.365 485.79 305.474 486.2C305.582 486.609 305.598 487.038 305.52 487.455Z" fill="#211715"/>
<path d="M298.272 574.492C298.318 589.376 298.69 604.269 299.191 619.144C299.306 622.557 299.429 625.972 299.615 629.383C299.754 631.943 303.755 631.959 303.615 629.383C302.806 614.525 302.604 599.616 302.379 584.74C302.328 581.325 302.279 577.908 302.272 574.492C302.264 571.919 298.264 571.914 298.272 574.492Z" fill="#211715"/>
<path d="M335.865 578.826C335.422 592.756 335.765 606.741 336.121 620.67C336.205 623.991 336.301 627.312 336.436 630.632C336.536 633.197 340.536 633.21 340.436 630.632C339.87 616.699 339.683 602.732 339.723 588.789C339.733 585.468 339.759 582.145 339.865 578.826C339.947 576.251 335.947 576.254 335.865 578.826Z" fill="#211715"/>
<path d="M320.172 593.016C319.606 604.016 319.305 615.056 319.191 626.071C319.172 627.971 319.105 629.892 319.247 631.788C319.438 634.339 323.439 634.36 323.247 631.788C322.927 627.521 323.221 623.152 323.317 618.882C323.458 612.653 323.644 606.425 323.874 600.2C323.961 597.805 324.048 595.409 324.174 593.016C324.306 590.443 320.306 590.45 320.174 593.016H320.172Z" fill="#211715"/>
<path d="M322.642 632.714C322.853 632.767 323.065 632.816 323.277 632.863C325.633 633.382 328.055 633.534 330.459 633.314C332.156 633.327 333.845 633.136 335.489 632.749C336.493 632.512 337.48 632.203 338.443 631.821C338.898 631.55 339.228 631.112 339.362 630.6C339.496 630.088 339.424 629.544 339.161 629.085C338.885 628.636 338.447 628.31 337.937 628.177C337.427 628.043 336.885 628.111 336.424 628.367C336.065 628.535 336.893 628.21 336.49 628.342C336.39 628.374 336.298 628.413 336.201 628.442C335.967 628.521 335.73 628.59 335.491 628.652C334.938 628.797 334.376 628.907 333.812 628.999L333.391 629.063C333.152 629.1 333.71 629.028 333.316 629.073C332.986 629.111 332.656 629.15 332.326 629.181C331.642 629.248 330.957 629.293 330.27 629.318C328.966 629.376 327.66 629.363 326.357 629.281C326.084 629.263 325.812 629.241 325.541 629.214C325.387 629.199 325.233 629.177 325.079 629.163C325.62 629.212 325.133 629.169 325.032 629.153C324.583 629.085 324.14 628.985 323.705 628.853C323.194 628.712 322.647 628.78 322.186 629.042C321.724 629.304 321.386 629.739 321.245 630.25C321.104 630.761 321.172 631.308 321.434 631.769C321.696 632.231 322.131 632.569 322.642 632.71V632.714Z" fill="#211715"/>
<path d="M299.894 630.855C300.168 631.925 300.838 632.789 301.666 633.496C302.35 634.079 303.143 634.556 303.91 634.955C304.925 635.529 306.004 635.978 307.126 636.295C308.204 636.519 309.297 636.658 310.396 636.712C313.604 637.035 316.813 636.425 319.651 634.99C320.597 634.511 321.502 633.941 322.352 633.283C322.724 632.907 322.933 632.399 322.933 631.869C322.933 631.339 322.724 630.831 322.352 630.455C321.971 630.091 321.465 629.889 320.938 629.889C320.411 629.889 319.905 630.091 319.524 630.455C317.05 632.227 314.018 633.042 310.989 632.748C309.447 632.738 307.924 632.412 306.513 631.789C305.757 631.465 305.042 631.055 304.38 630.567C304.184 630.399 303.999 630.218 303.827 630.025C303.912 630.125 303.889 630.078 303.758 629.885C303.82 630.05 303.817 630.02 303.751 629.796C303.11 627.304 299.251 628.36 299.894 630.859V630.855Z" fill="#211715"/>
<path d="M302.909 629.83C302.117 629.5 301.257 629.365 300.401 629.436C299.546 629.507 298.72 629.782 297.993 630.239C297.161 630.748 296.466 631.451 295.967 632.289C295.469 633.127 295.182 634.073 295.131 635.047C294.911 636.998 295.242 638.972 296.088 640.744C296.934 642.516 298.26 644.015 299.916 645.07C303.641 647.48 307.946 648.844 312.379 649.019C316.6 649.232 321.161 648.338 323.064 644.098C323.523 643.075 323.801 642.001 323.945 640.901C324.292 638.243 323.851 635.438 323.277 632.863C323.244 632.712 323.21 632.562 323.175 632.412C322.597 629.905 318.739 630.966 319.318 633.476C319.446 633.977 319.557 634.482 319.651 634.99C319.915 636.412 320.048 637.856 320.047 639.304C320.048 639.892 319.99 640.479 319.873 641.056C319.811 641.328 319.747 641.598 319.663 641.864C319.64 641.936 319.412 642.494 319.491 642.338C319.502 642.317 319.518 642.284 319.54 642.236C319.524 642.27 319.508 642.304 319.491 642.338C317.727 645.925 312.54 645.313 309.259 644.595C306.01 643.884 301.693 642.514 299.87 639.473C299.074 638.101 298.828 636.478 299.18 634.932C299.212 634.649 299.317 634.379 299.485 634.149C299.653 633.919 299.879 633.737 300.139 633.621C300.408 633.496 300.727 633.493 300.989 633.374C301.015 633.362 301.041 633.359 301.064 633.359C301.153 633.361 301.185 633.425 300.889 633.284C300.947 633.312 301.006 633.337 301.064 633.359C301.268 633.438 301.47 633.482 301.666 633.496C303.607 633.632 304.964 630.816 302.908 629.83H302.909Z" fill="#211715"/>
<path d="M303.91 634.955C303.143 634.556 302.35 634.079 301.666 633.496C301.47 633.482 301.268 633.438 301.064 633.359C301.041 633.359 301.015 633.362 300.989 633.374C300.727 633.493 300.408 633.496 300.139 633.621C299.879 633.737 299.653 633.919 299.485 634.149C299.317 634.379 299.212 634.649 299.18 634.932C298.828 636.478 299.074 638.101 299.87 639.473C301.693 642.514 306.01 643.884 309.259 644.595C312.54 645.313 317.727 645.925 319.491 642.338C319.412 642.494 319.64 641.936 319.663 641.864C319.747 641.598 319.811 641.328 319.873 641.056C319.99 640.479 320.048 639.892 320.047 639.304C320.048 637.856 319.915 636.412 319.651 634.99C316.813 636.425 313.604 637.035 310.396 636.712C309.297 636.658 308.204 636.519 307.126 636.295C306.004 635.978 304.925 635.529 303.91 634.955Z" fill="#211715"/>
<path d="M335.3 630.978C335.338 631.57 335.401 632.161 335.489 632.749C335.624 633.645 335.817 634.534 336.067 635.413C336.12 635.593 336.158 635.775 336.18 635.959C336.182 635.978 336.184 635.997 336.186 636.016C336.186 635.572 336.173 635.797 336.18 635.959C336.181 635.988 336.183 636.015 336.186 636.036C336.221 636.318 336.232 636.602 336.218 636.886C336.207 637.127 336.179 637.365 336.156 637.605C336.152 637.658 336.149 637.696 336.148 637.722C336.137 637.932 336.215 637.448 336.121 637.823C336.059 638.072 336.001 638.319 335.924 638.565C335.907 638.618 335.791 638.908 335.751 639.021C335.733 639.069 335.73 639.085 335.753 639.037C335.772 638.998 335.768 638.998 335.751 639.021C335.695 639.094 335.506 639.399 335.481 639.448C335.427 639.513 335.391 639.557 335.375 639.579C335.343 639.622 335.379 639.587 335.481 639.474C335.446 639.51 335.411 639.545 335.375 639.579C335.341 639.611 335.308 639.642 335.273 639.673C335.106 639.823 334.928 639.964 334.739 640.095C335.112 639.833 334.534 640.195 334.443 640.243C334.227 640.351 334.005 640.442 333.781 640.541C333.528 640.64 333.518 640.64 333.753 640.551C333.652 640.582 333.549 640.612 333.447 640.64C332.979 640.762 332.503 640.86 332.021 640.931C332.005 640.933 331.99 640.935 331.974 640.938C331.799 640.961 331.834 640.957 332.079 640.926C332.06 640.927 332.04 640.929 332.021 640.931C331.861 640.945 331.702 640.957 331.541 640.968C331.244 640.989 330.944 641.005 330.648 641.016C330.094 641.037 329.539 641.038 328.978 641.016C328.711 641.005 328.443 640.981 328.176 640.966C328.038 640.953 327.962 640.946 327.949 640.945C327.935 640.945 327.993 640.952 328.122 640.966C328.063 640.96 328.006 640.952 327.949 640.945C327.891 640.938 327.833 640.93 327.774 640.922C327.159 640.84 326.552 640.732 325.947 640.614C325.645 640.545 325.329 640.526 325.018 640.558C324.707 640.59 324.406 640.673 324.134 640.802C324.069 640.833 324.005 640.866 323.945 640.901C323.491 641.165 323.159 641.553 323.011 642.001C323.011 642.001 322.924 643.051 323.237 643.508C323.55 643.966 324.068 644.302 324.679 644.442C329.619 645.402 336.676 645.542 339.647 641.376C340.788 639.621 341.224 637.608 340.891 635.633C340.741 634.667 340.526 633.713 340.322 632.755C340.277 632.546 340.233 632.337 340.192 632.126C340.172 632.027 340.153 631.928 340.134 631.829C340.095 631.601 340.099 631.634 340.147 631.928C340.056 631.619 340.03 631.3 340.07 630.984C340.07 630.458 339.819 629.953 339.371 629.581C338.924 629.209 338.317 629 337.684 629C337.051 629 336.444 629.209 335.996 629.581C335.549 629.953 335.297 630.458 335.297 630.984L335.3 630.978Z" fill="#211715"/>
<path d="M330.459 633.314C328.055 633.534 325.633 633.382 323.277 632.863C323.851 635.438 324.292 638.243 323.945 640.901C324.005 640.866 324.069 640.833 324.134 640.802C324.406 640.673 324.707 640.59 325.018 640.558C325.329 640.526 325.645 640.545 325.947 640.614C326.552 640.732 327.159 640.84 327.774 640.922C327.833 640.93 327.891 640.938 327.949 640.945C327.962 640.946 328.038 640.953 328.176 640.966C328.443 640.981 328.711 641.005 328.978 641.016C329.539 641.038 330.094 641.037 330.648 641.016C330.944 641.005 331.244 640.989 331.541 640.968C331.702 640.957 331.861 640.945 332.021 640.931C332.503 640.86 332.979 640.762 333.447 640.64C333.549 640.612 333.652 640.582 333.753 640.551C333.518 640.64 333.528 640.64 333.781 640.541C334.005 640.442 334.227 640.351 334.443 640.243C334.534 640.195 335.112 639.833 334.739 640.095C334.928 639.964 335.106 639.823 335.273 639.673C335.308 639.642 335.341 639.611 335.375 639.579C335.391 639.557 335.427 639.513 335.481 639.448C335.506 639.399 335.695 639.094 335.751 639.021C335.791 638.908 335.907 638.618 335.924 638.565C336.001 638.319 336.059 638.072 336.121 637.823C336.132 637.778 336.141 637.745 336.148 637.722C336.149 637.696 336.152 637.658 336.156 637.605C336.179 637.365 336.207 637.127 336.218 636.886C336.232 636.602 336.221 636.318 336.186 636.036C336.183 636.015 336.181 635.988 336.18 635.959C336.158 635.775 336.12 635.593 336.067 635.413C335.817 634.534 335.624 633.645 335.489 632.749C333.845 633.136 332.156 633.327 330.459 633.314Z" fill="#211715"/>
<path d="M305.016 517.33C305.746 515.308 305.679 513.085 304.829 511.111C303.979 509.136 302.41 507.559 300.44 506.7C296.756 504.98 292.103 505.434 289.369 508.672C287.863 510.448 287.097 512.735 287.227 515.06C287.238 515.587 287.453 516.089 287.825 516.461C288.198 516.834 288.7 517.049 289.227 517.06C289.756 517.055 290.262 516.843 290.636 516.469C291.01 516.095 291.222 515.589 291.227 515.06C291.213 514.801 291.205 514.544 291.214 514.285C291.214 514.201 291.308 513.449 291.235 513.878C291.314 513.456 291.422 513.041 291.558 512.634C291.643 512.416 291.644 512.407 291.558 512.609C291.607 512.499 291.658 512.392 291.715 512.285C291.798 512.126 291.887 511.97 291.982 511.819C292.027 511.748 292.462 511.189 292.194 511.5C292.35 511.319 292.509 511.143 292.681 510.977C292.81 510.852 292.945 510.732 293.081 510.619C292.766 510.876 293.349 510.448 293.416 510.407C293.626 510.278 293.844 510.165 294.066 510.057C293.719 510.226 294.251 509.989 294.286 509.977C294.53 509.893 294.778 509.823 295.03 509.766C295.15 509.739 295.272 509.715 295.394 509.694C295.168 509.72 295.175 509.72 295.415 509.694C295.848 509.668 296.282 509.668 296.715 509.694C296.955 509.72 296.964 509.72 296.741 509.694C296.865 509.714 296.988 509.737 297.11 509.763C297.294 509.801 297.476 509.846 297.657 509.897C297.899 509.966 298.135 510.047 298.37 510.135C298.007 509.999 298.68 510.285 298.748 510.32C298.914 510.407 299.077 510.499 299.237 510.598C299.296 510.635 299.9 511.053 299.595 510.82C299.929 511.094 300.243 511.392 300.535 511.711C300.682 511.89 300.694 511.899 300.57 511.736C300.643 511.836 300.714 511.936 300.782 512.036C300.918 512.242 301.028 512.46 301.152 512.673C301.352 513.022 301.118 512.438 301.252 512.891C301.339 513.157 301.405 513.43 301.452 513.706C301.415 513.426 301.459 514.08 301.46 514.157C301.46 514.418 301.447 514.675 301.435 514.935C301.407 515.188 301.407 515.229 301.435 515.058C301.413 515.199 301.388 515.34 301.36 515.48C301.306 515.745 301.237 516.005 301.16 516.264C301.019 516.776 301.087 517.322 301.349 517.784C301.611 518.245 302.046 518.584 302.557 518.724C303.069 518.865 303.616 518.797 304.077 518.535C304.539 518.273 304.877 517.839 305.018 517.327L305.016 517.33Z" fill="#211715"/>
<path d="M297.855 551.671C301.71 549.043 304.584 545.12 307.291 541.39L307.297 541.393C307.573 540.944 308.011 540.618 308.521 540.485C309.031 540.351 309.573 540.419 310.034 540.675C310.489 540.946 310.819 541.384 310.953 541.897C311.087 542.409 311.015 542.953 310.751 543.412C307.358 548.087 303.65 553.12 298.507 555.994C299.46 557.182 300.399 558.977 300.399 560.245C300.398 562.47 300.47 564.691 300.527 566.914C300.536 567.873 300.747 568.819 301.145 569.691C301.411 570.313 301.902 570.813 302.519 571.091C304.856 571.922 307.292 572.441 309.765 572.634C312.643 572.984 315.546 573.078 318.44 572.917C321.126 572.785 323.801 572.482 326.462 572.101C329.129 571.813 331.776 571.362 334.387 570.749C335.239 570.613 336.047 570.276 336.743 569.765C337.371 569.125 337.316 567.968 337.343 567.15C337.436 564.232 337.533 561.314 337.633 558.396C337.991 548.031 338.225 537.607 336.159 527.387C335.305 523.16 334.114 517.895 330.114 515.495C326.509 513.338 321.634 514.59 317.844 515.522C315.475 516.105 313.137 516.789 310.832 517.574C309.245 518.037 307.712 518.668 306.259 519.457C304.117 520.754 302.615 523.027 301.274 525.079C299.732 527.449 298.362 529.926 297.174 532.491C296.903 532.946 296.465 533.276 295.953 533.41C295.441 533.544 294.897 533.472 294.438 533.208C293.991 532.93 293.668 532.492 293.534 531.983C293.401 531.474 293.468 530.933 293.721 530.472C294.829 528.061 296.104 525.732 297.535 523.5C296.387 522.815 295.211 522.172 294.043 521.526C293.054 520.979 292.061 520.438 291.061 519.912C290.964 519.864 290.108 519.463 289.582 519.222C289.562 519.286 289.54 519.349 289.517 519.412C289.428 519.711 289.34 520.011 289.254 520.312C289.041 521.065 288.841 521.822 288.654 522.582C288.317 523.95 288.02 525.328 287.748 526.71C287.204 529.478 286.743 532.266 286.32 535.055C285.865 538.033 285.652 541.043 285.683 544.055C285.701 545.566 285.788 547.079 285.955 548.579C285.999 549.632 286.254 550.666 286.706 551.619C287.131 552.555 287.857 553.322 288.769 553.798C289.68 554.274 290.725 554.432 291.736 554.246C293.941 553.852 296.032 552.973 297.855 551.671Z" fill="#292929"/>
<path d="M300.755 520.788C302.917 522.176 300.909 525.637 298.736 524.242C298.34 523.988 297.94 523.741 297.535 523.5C296.104 525.732 294.829 528.061 293.721 530.472C293.468 530.933 293.401 531.474 293.534 531.983C293.668 532.492 293.991 532.93 294.438 533.208C294.897 533.472 295.441 533.544 295.953 533.41C296.465 533.276 296.903 532.946 297.174 532.491C298.362 529.926 299.732 527.449 301.274 525.079C302.615 523.027 304.117 520.754 306.259 519.457C307.712 518.668 309.245 518.037 310.832 517.574C313.137 516.789 315.475 516.105 317.844 515.522C321.634 514.59 326.509 513.338 330.114 515.495C334.114 517.895 335.305 523.16 336.159 527.387C338.225 537.607 337.991 548.031 337.633 558.396C337.533 561.314 337.436 564.232 337.343 567.15C337.316 567.968 337.371 569.125 336.743 569.765C336.047 570.276 335.239 570.613 334.387 570.749C331.776 571.362 329.129 571.813 326.462 572.101C323.801 572.482 321.126 572.785 318.44 572.917C315.546 573.078 312.643 572.984 309.765 572.634C307.292 572.441 304.856 571.922 302.519 571.091C301.902 570.813 301.411 570.313 301.145 569.691C300.747 568.819 300.536 567.873 300.527 566.914C300.47 564.691 300.398 562.47 300.399 560.245C300.399 558.977 299.46 557.182 298.507 555.994C298.07 556.238 297.622 556.467 297.164 556.678C296.942 556.781 296.717 556.881 296.488 556.979L296.4 560.242C296.4 562.46 296.471 564.674 296.528 566.89C296.479 569.328 297.357 571.694 298.985 573.509C300.403 574.883 302.534 575.35 304.4 575.734C307.328 576.365 310.301 576.767 313.291 576.934C319.452 577.224 325.596 576.296 331.662 575.326C334.094 574.936 336.847 574.609 338.904 573.126C341.288 571.409 341.298 568.501 341.379 565.847C341.741 553.962 342.522 542.036 340.709 530.225C339.857 524.68 338.757 518.51 334.818 514.24C331.388 510.522 326.584 510.002 321.812 510.666C316.11 511.459 310.553 513.071 305.312 515.452C303.142 516.61 301.259 518.228 299.79 520.187C300.114 520.383 300.436 520.583 300.755 520.788Z" fill="black"/>
<path d="M307.291 541.39C304.584 545.12 301.71 549.043 297.855 551.671C296.032 552.973 293.941 553.852 291.736 554.246C290.725 554.432 289.68 554.274 288.769 553.798C287.857 553.322 287.131 552.555 286.706 551.619C286.254 550.666 285.999 549.632 285.955 548.579C285.788 547.079 285.701 545.566 285.683 544.055C285.652 541.043 285.865 538.033 286.32 535.055C286.743 532.266 287.204 529.478 287.748 526.71C288.02 525.328 288.317 523.95 288.654 522.582C288.841 521.822 289.041 521.065 289.254 520.312C289.34 520.011 289.428 519.711 289.517 519.412C289.54 519.349 289.562 519.286 289.582 519.222C289.341 519.112 289.169 519.036 289.169 519.042C289.574 518.721 289.741 518.674 289.669 518.902C289.644 519.01 289.615 519.116 289.582 519.222C290.108 519.463 290.964 519.864 291.061 519.912C292.061 520.438 293.054 520.979 294.043 521.526C295.211 522.172 296.387 522.815 297.535 523.5C298.021 522.743 298.525 521.997 299.046 521.263C299.28 520.894 299.528 520.535 299.79 520.187C298.431 519.364 297.028 518.605 295.639 517.839C293.893 516.878 291.819 515.375 289.812 515.106C285.912 514.583 285.368 519.15 284.691 521.976C283.891 525.329 283.312 528.731 282.764 532.133C282.156 535.598 281.797 539.102 281.692 542.619C281.666 544.213 281.712 545.81 281.844 547.399C281.888 549.101 282.172 550.789 282.69 552.411C283.69 554.973 286.015 557.57 288.79 558.155C291.359 558.696 294.095 557.999 296.488 556.979L296.528 555.5C296.528 554.192 297.525 554.77 298.507 555.994C303.65 553.12 307.358 548.087 310.751 543.412C311.015 542.953 311.087 542.409 310.953 541.897C310.819 541.384 310.489 540.946 310.034 540.675C309.573 540.419 309.031 540.351 308.521 540.485C308.011 540.618 307.573 540.944 307.297 541.393L307.291 541.39Z" fill="black"/>
<path fill-rule="evenodd" clip-rule="evenodd" d="M296.528 555.5C296.528 554.192 297.525 554.77 298.507 555.994C298.07 556.238 297.622 556.467 297.164 556.678C296.942 556.781 296.717 556.881 296.488 556.979L296.528 555.5ZM289.582 519.222C289.615 519.116 289.644 519.01 289.669 518.902C289.741 518.674 289.574 518.721 289.169 519.042C289.169 519.036 289.341 519.112 289.582 519.222Z" fill="#292929"/>
<path d="M298.736 524.242C300.909 525.637 302.917 522.176 300.755 520.788C300.436 520.583 300.114 520.383 299.79 520.187C299.528 520.535 299.28 520.894 299.046 521.263C298.525 521.997 298.021 522.743 297.535 523.5C297.94 523.741 298.34 523.988 298.736 524.242Z" fill="#292929"/>
<path d="M328.833 513.011C329.934 511.429 331.189 509.96 332.579 508.626C334.121 506.967 335.533 505.192 336.804 503.317C339.391 499.382 340.803 494.792 340.873 490.083C340.843 486.068 339.797 482.126 337.834 478.624C335.871 475.122 333.054 472.174 329.645 470.053C322.672 465.714 313.788 465.853 306.583 469.581C302.709 471.65 299.441 474.694 297.101 478.412C294.762 482.129 293.432 486.393 293.243 490.781C292.766 500.697 299.106 512.181 310.231 511.844C312.799 511.766 312.81 507.766 310.231 507.844C301.993 508.095 297.385 499.729 297.221 492.425C297.124 488.704 298.003 485.023 299.772 481.748C301.153 479.189 303.04 476.949 305.308 475.157C305.943 474.655 306.608 474.188 307.301 473.759C313.078 470.274 320.58 469.623 326.592 472.899C329.457 474.461 331.891 476.708 333.677 479.439C335.463 482.17 336.545 485.301 336.827 488.552C337.085 493.132 335.825 497.669 333.241 501.459C332.004 503.226 330.635 504.898 329.147 506.459C328.918 506.683 328.692 506.911 328.47 507.143C327.332 508.332 326.298 509.618 325.379 510.986C324.07 513.209 327.527 515.224 328.833 513.005V513.011Z" fill="#211715"/>
<path d="M301.718 476.968C305.001 482.207 309.376 486.676 314.545 490.068C315.004 490.332 315.548 490.404 316.06 490.27C316.572 490.136 317.01 489.806 317.281 489.351C317.537 488.89 317.605 488.348 317.471 487.838C317.337 487.329 317.012 486.89 316.563 486.614C316.507 486.577 316.45 486.54 316.394 486.503C315.852 486.142 315.318 485.77 314.791 485.386L314.379 485.079L314.216 484.955C314.321 485.038 314.322 485.038 314.216 484.955C313.919 484.723 313.626 484.487 313.337 484.246C312.256 483.35 311.223 482.398 310.242 481.394C309.259 480.394 308.342 479.331 307.46 478.235L307.333 478.074C307.415 478.18 307.415 478.181 307.333 478.074C307.229 477.941 307.126 477.804 307.024 477.664C306.82 477.389 306.62 477.112 306.424 476.832C306.038 476.283 305.666 475.725 305.308 475.157C305.264 475.087 305.22 475.018 305.177 474.948C304.909 474.49 304.471 474.157 303.957 474.023C303.444 473.888 302.899 473.963 302.44 474.231C301.982 474.498 301.65 474.937 301.515 475.45C301.38 475.963 301.455 476.509 301.723 476.967L301.718 476.968Z" fill="#211715"/>
<path d="M316.426 490.533C316.526 490.507 317.014 490.452 316.526 490.488C316.686 490.476 316.842 490.463 317.003 490.463C317.164 490.463 317.322 490.475 317.481 490.491C317.211 490.463 317.272 490.462 317.5 490.516C317.656 490.553 317.806 490.616 317.961 490.652C318.181 490.702 317.678 490.487 318.001 490.666C318.141 490.744 318.285 490.814 318.421 490.9C318.521 490.965 318.821 491.261 318.533 490.966C318.643 491.078 318.767 491.19 318.881 491.298C319.171 491.572 318.745 491.024 318.971 491.398C319.041 491.514 319.116 491.626 319.181 491.746C319.223 491.822 319.261 491.899 319.297 491.978C319.224 491.8 319.213 491.778 319.262 491.913C319.311 492.048 319.355 492.197 319.391 492.341C319.427 492.485 319.491 492.878 319.448 492.518C319.483 492.884 319.49 493.251 319.469 493.618C319.454 494.047 319.55 493.361 319.445 493.818C319.41 493.969 319.382 494.118 319.345 494.27C319.298 494.45 319.243 494.628 319.182 494.803C319.136 494.935 319.017 495.184 319.14 494.927C318.979 495.257 318.795 495.576 318.591 495.882C318.275 496.364 318.83 495.624 318.455 496.069C318.333 496.213 318.21 496.354 318.081 496.492C317.842 496.745 317.589 496.985 317.325 497.211C317.237 497.286 316.988 497.483 317.209 497.311C317.057 497.426 316.9 497.535 316.741 497.64C316.426 497.849 316.1 498.04 315.763 498.211C315.598 498.296 315.43 498.378 315.263 498.45C315.583 498.315 315.152 498.48 315.063 498.513C314.81 498.583 314.573 498.702 314.365 498.863C314.158 499.025 313.985 499.226 313.855 499.454C313.725 499.683 313.642 499.934 313.61 500.195C313.577 500.456 313.597 500.72 313.666 500.974C313.736 501.227 313.855 501.464 314.017 501.671C314.178 501.878 314.379 502.052 314.607 502.181C314.836 502.311 315.088 502.394 315.348 502.427C315.609 502.459 315.874 502.44 316.127 502.37C317.319 501.949 318.466 501.339 319.486 500.57C321.801 498.824 323.458 496.261 323.494 493.245C323.524 492.18 323.3 491.124 322.838 490.163C322.377 489.203 321.693 488.367 320.843 487.725C320.065 487.16 319.171 486.773 318.227 486.592C317.621 486.476 317.005 486.446 316.394 486.503C316.052 486.534 315.712 486.593 315.377 486.678C314.868 486.823 314.436 487.162 314.174 487.622C313.912 488.082 313.841 488.626 313.977 489.138C314.126 489.644 314.466 490.073 314.925 490.334C315.384 490.595 315.926 490.668 316.437 490.538L316.426 490.533Z" fill="#211715"/>
<path d="M315.654 502.012C318.419 506.289 322.585 509.471 327.439 511.012C327.951 511.149 328.496 511.078 328.956 510.816C329.416 510.554 329.755 510.122 329.899 509.612C330.028 509.101 329.954 508.559 329.693 508.101C329.432 507.642 329.005 507.302 328.499 507.152C328.489 507.149 328.48 507.146 328.47 507.143C327.998 506.986 327.535 506.808 327.071 506.63C327.037 506.617 327.003 506.604 326.969 506.591C327.011 506.607 327.044 506.62 327.071 506.63C327.328 506.728 326.908 506.564 326.852 506.539C326.752 506.495 326.652 506.451 326.558 506.405C326.315 506.293 326.074 506.175 325.836 506.053C324.871 505.541 323.943 504.963 323.057 504.324C323.046 504.316 323.036 504.309 323.028 504.304C322.867 504.195 323.401 504.603 323.018 504.296C322.918 504.213 322.811 504.129 322.708 504.044C322.503 503.874 322.301 503.699 322.103 503.521C321.703 503.161 321.32 502.784 320.955 502.391C320.77 502.191 320.589 501.991 320.413 501.785C320.325 501.685 320.237 501.577 320.151 501.471C320.133 501.449 320.032 501.321 319.98 501.257C319.941 501.208 319.929 501.195 320.001 501.288C320.096 501.412 320.046 501.345 319.98 501.257C319.93 501.191 319.872 501.113 319.859 501.095C319.777 500.984 319.696 500.872 319.616 500.758C319.572 500.696 319.529 500.633 319.486 500.57C319.356 500.379 319.229 500.187 319.105 499.993C318.972 499.766 318.797 499.568 318.587 499.409C318.378 499.25 318.14 499.134 317.886 499.067C317.632 499.001 317.367 498.985 317.107 499.02C316.846 499.056 316.596 499.143 316.369 499.275C316.142 499.408 315.944 499.583 315.785 499.793C315.626 500.002 315.51 500.24 315.443 500.494C315.377 500.748 315.361 501.013 315.396 501.273C315.432 501.534 315.518 501.784 315.651 502.011L315.654 502.012Z" fill="#211715"/>
<path d="M307.301 473.759C306.608 474.188 305.943 474.655 305.308 475.157C305.666 475.725 306.038 476.283 306.424 476.832C306.62 477.112 306.82 477.389 307.024 477.664C307.126 477.804 307.229 477.941 307.333 478.074L307.46 478.235C308.342 479.331 309.259 480.394 310.242 481.394C311.223 482.398 312.256 483.35 313.337 484.246C313.626 484.487 313.919 484.723 314.216 484.955L314.379 485.079L314.791 485.386C315.318 485.77 315.852 486.142 316.394 486.503C317.005 486.446 317.621 486.476 318.227 486.592C319.171 486.773 320.065 487.16 320.843 487.725C321.693 488.367 322.377 489.203 322.838 490.163C323.3 491.124 323.524 492.18 323.494 493.245C323.458 496.261 321.801 498.824 319.486 500.57C319.529 500.633 319.572 500.696 319.616 500.758C319.696 500.872 319.777 500.984 319.859 501.095C319.872 501.113 319.93 501.191 319.98 501.257C320.032 501.321 320.133 501.449 320.151 501.471C320.237 501.577 320.325 501.685 320.413 501.785C320.589 501.991 320.77 502.191 320.955 502.391C321.32 502.784 321.703 503.161 322.103 503.521C322.301 503.699 322.503 503.874 322.708 504.044C322.811 504.129 322.918 504.213 323.018 504.296C323.021 504.299 323.025 504.301 323.028 504.304C323.036 504.309 323.046 504.316 323.057 504.324C323.943 504.963 324.871 505.541 325.836 506.053C326.074 506.175 326.315 506.293 326.558 506.405C326.652 506.451 326.752 506.495 326.852 506.539C326.908 506.564 327.328 506.728 327.071 506.63C327.535 506.808 327.998 506.986 328.47 507.143C328.692 506.911 328.918 506.683 329.147 506.459C330.635 504.898 332.004 503.226 333.241 501.459C335.825 497.669 337.085 493.132 336.827 488.552C336.545 485.301 335.463 482.17 333.677 479.439C331.891 476.708 329.457 474.461 326.592 472.899C320.58 469.623 313.078 470.274 307.301 473.759Z" fill="#211715"/>
</g>
<ellipse cx="424" cy="779" rx="40" ry="18" fill="black" fill-opacity="0.6"/>
<path d="M447.3 777.221C447.191 779.363 446.647 781.461 445.7 783.386C443.714 787.286 439.882 789.956 435.847 791.655C431.812 793.354 431.234 792.914 427.059 794.231C423.804 795.258 420.396 796.737 419.001 800.031C418.416 801.719 418.069 803.48 417.97 805.263C417.67 812.01 417.724 819.029 417.64 825.973C417.645 826.458 417.496 826.931 417.214 827.325C416.931 827.719 416.531 828.012 416.07 828.163C411.311 829.55 406.295 829.817 401.415 828.944C400.91 828.777 400.461 828.475 400.115 828.071C399.587 827.573 399.207 826.94 399.015 826.24C398.639 823.088 398.458 820.052 398.351 817.013C394.858 817.788 390.866 819.128 387.151 818.222C384.568 817.591 382.151 815.622 381.751 812.993L381.423 810.821C380.846 800.202 380.27 801.539 379.693 790.921C379.499 787.347 379.343 783.58 380.975 780.395C382.379 778.012 384.318 775.989 386.639 774.486C391.117 771.212 395.973 768.49 401.103 766.379C401.103 766.379 440.619 775.858 447.3 777.221Z" fill="#F3736F"/>
<path d="M439.221 780.78C441.521 779.492 444.484 778.042 447.344 776.328C452.09 773.489 456.602 769.899 457.535 765.082C457.855 762.998 457.844 760.876 457.505 758.795C456.592 751.423 454.848 742.012 450.254 735.948C447.454 732.236 443.034 727.448 438.724 725.239C438.724 725.239 431.247 721.619 423.983 721.146C412.321 720.385 406.353 725.357 406.353 725.357C399.595 730.478 394.909 737.862 393.153 746.157L391.119 757.869L390.384 762.1L439.221 780.78Z" fill="white"/>
<path d="M392.472 838.491C392.259 837.444 392.276 836.363 392.523 835.324C392.77 834.285 393.24 833.311 393.901 832.472C395.413 830.676 397.259 829.19 399.337 828.096C401.437 829.741 409.969 830.058 416.075 828.166C416.283 828.103 416.479 828.008 416.658 827.885C416.733 828.598 416.781 829.038 416.781 829.038C417.416 834.838 413.903 837.17 411.673 838.497C409.018 840.075 406.157 841.279 403.173 842.076C401.38 842.629 399.493 842.814 397.626 842.619C396.694 842.509 395.797 842.198 394.998 841.706C394.199 841.213 393.517 840.553 393 839.77C392.765 839.37 392.588 838.94 392.472 838.491Z" fill="white"/>
<path d="M374.609 825.925C374.88 825.16 375.265 824.44 375.752 823.791C377.396 821.883 379.398 820.316 381.644 819.178C382.788 818.389 384.086 817.851 385.452 817.597C385.996 817.869 386.569 818.08 387.16 818.225C390.875 819.131 394.866 817.792 398.36 817.016C398.435 819.207 398.551 821.395 398.75 823.627L397.181 823.886C397.298 826.386 395.081 828.336 392.93 829.615C390.362 831.14 387.597 832.304 384.711 833.074C382.977 833.61 381.152 833.787 379.348 833.594C378.447 833.49 377.58 833.19 376.808 832.715C376.035 832.239 375.377 831.6 374.879 830.842C374.478 830.092 374.246 829.263 374.2 828.413C374.153 827.564 374.293 826.715 374.609 825.925Z" fill="white"/>
<path d="M414.781 829.038C414.983 830.292 414.849 831.577 414.393 832.762C413.936 833.947 413.173 834.989 412.181 835.783C409.305 837.831 406.065 839.312 402.635 840.147C399.861 840.882 394.348 841.364 394.294 837.111C394.246 833.311 398.168 831.111 401 829.435C403.215 828.126 401.2 824.667 398.981 825.981C395.634 827.959 392.273 830.176 390.856 833.981C390.142 835.723 390.096 837.667 390.726 839.441C391.356 841.215 392.618 842.694 394.271 843.595C398.114 845.608 402.645 844.529 406.506 843.127C409.662 842.084 412.612 840.499 415.223 838.443C416.54 837.287 417.554 835.826 418.174 834.187C418.794 832.548 419.002 830.781 418.78 829.043C418.766 828.517 418.551 828.016 418.179 827.644C417.807 827.272 417.306 827.057 416.78 827.043C416.251 827.047 415.744 827.259 415.37 827.633C414.996 828.007 414.784 828.514 414.78 829.043L414.781 829.038Z" fill="#211715"/>
<path d="M384.654 815.706C382.886 816.184 381.212 816.962 379.707 818.006C378.208 818.868 376.806 819.889 375.527 821.053C373.065 823.4 371.446 827.063 372.536 830.453C373.688 834.039 377.45 835.78 381.01 835.686C384.849 835.586 388.784 834.054 392.163 832.325C395.488 830.625 399.212 828.043 399.184 823.886C399.167 821.313 395.167 821.307 395.184 823.886C395.204 826.824 390.868 828.595 388.684 829.576C387.103 830.277 385.463 830.838 383.784 831.251C382.093 831.804 380.274 831.836 378.565 831.342C375.675 830.258 375.747 827.114 377.393 824.923C378.435 823.675 379.697 822.628 381.116 821.834C382.506 820.811 384.065 820.042 385.723 819.563C388.244 819.049 387.177 815.193 384.66 815.706H384.654Z" fill="#211715"/>
<path d="M400.579 764.452C394.895 766.764 389.538 769.808 384.643 773.508C382.192 775.2 380.214 777.49 378.898 780.162C377.818 782.968 377.378 785.98 377.61 788.978C377.755 793.293 378.17 797.578 378.688 801.861C379.156 805.731 379.133 809.675 379.828 813.51C380.136 814.877 380.774 816.149 381.688 817.212C382.601 818.276 383.761 819.099 385.066 819.61C388.426 821.053 392.127 820.516 395.582 819.735C398.092 819.168 397.03 815.311 394.519 815.878C390.786 816.722 384.486 817.378 383.656 812.263C383.109 808.888 383.113 805.407 382.701 801.976C382.269 798.376 381.915 794.791 381.714 791.171C381.431 788.622 381.518 786.046 381.972 783.522C382.638 781.095 384.088 778.955 386.095 777.436C390.787 773.628 396.029 770.552 401.642 768.313C402.145 768.158 402.569 767.817 402.829 767.36C403.09 766.903 403.166 766.364 403.042 765.853C402.899 765.343 402.56 764.909 402.1 764.647C401.639 764.385 401.094 764.315 400.582 764.453L400.579 764.452Z" fill="#211715"/>
<path d="M400.164 783.738C396.737 786.12 395.877 789.855 395.815 793.781C395.752 797.764 395.964 801.744 396.088 805.723C396.251 810.943 396.228 816.17 396.578 821.383C396.74 823.797 396.563 826.748 398.096 828.749C399.567 830.669 401.37 831.072 403.651 831.312C405.841 831.526 408.046 831.518 410.234 831.289C412.51 831.153 414.758 830.711 416.916 829.976C419.526 828.959 419.64 826.457 419.664 824.037C419.69 821.288 419.7 818.537 419.727 815.789C419.753 813.07 419.794 810.351 419.884 807.633C419.825 805.407 420.118 803.186 420.753 801.051C422.088 797.436 426.827 796.245 430.163 795.44C434.489 794.396 438.653 793.04 442.255 790.313C444.433 788.685 446.207 786.576 447.436 784.15C448.666 781.724 449.319 779.047 449.344 776.328C449.444 773.754 445.444 773.758 445.344 776.328C445.335 778.375 444.862 780.393 443.959 782.23C443.057 784.067 441.749 785.675 440.135 786.933C437.273 789.072 433.974 790.554 430.474 791.271C426.909 792.063 423.123 793.071 420.204 795.371C416.963 797.921 416.163 801.818 415.956 805.745C415.693 810.702 415.724 815.68 415.69 820.645C415.682 821.859 415.672 823.073 415.661 824.287C415.73 824.852 415.723 825.424 415.642 825.987C415.529 826.308 415.576 826.187 415.365 826.304C414.448 826.667 413.483 826.895 412.501 826.982C411.486 827.165 410.462 827.294 409.433 827.368C407.508 827.528 405.573 827.512 403.651 827.322C403.021 827.316 402.398 827.187 401.818 826.942C400.887 826.388 400.912 825.315 400.818 824.384C400.36 819.675 400.287 814.943 400.193 810.217C400.103 805.726 399.874 801.239 399.814 796.748C399.792 795.057 399.764 793.353 399.894 791.665C399.905 791.525 399.916 791.385 399.93 791.246C399.971 790.846 399.904 791.368 399.941 791.18C400.039 790.647 400.184 790.124 400.374 789.616C400.725 788.651 401.353 787.811 402.179 787.202C404.279 785.743 402.279 782.274 400.16 783.748L400.164 783.738Z" fill="#211715"/>
<path d="M405.344 723.63C398.159 729.035 393.15 736.837 391.227 745.62C390.692 748.131 394.547 749.204 395.084 746.684C396.715 738.898 401.069 731.949 407.363 727.084C407.808 726.804 408.13 726.366 408.263 725.857C408.396 725.349 408.331 724.809 408.08 724.347C407.81 723.892 407.371 723.561 406.859 723.427C406.347 723.293 405.803 723.366 405.344 723.63Z" fill="#211715"/>
<path d="M393.073 766.376C390.849 764.989 389.924 762.646 389.561 760.159C389.154 757.37 389.631 753.821 393.688 752.807C395.145 752.517 396.658 752.8 397.913 753.596C399.234 754.365 400.304 755.499 400.994 756.862C401.685 758.226 401.966 759.759 401.804 761.279C401.53 764.584 398.413 767.614 395.131 767.135C394.4 767.028 393.699 766.769 393.073 766.376Z" fill="white"/>
<path d="M394.082 764.649C393.623 764.356 393.218 763.987 392.882 763.558C393.061 763.781 392.802 763.437 392.764 763.381C392.669 763.238 392.579 763.091 392.494 762.942C392.426 762.823 392.361 762.701 392.299 762.578C392.299 762.578 392.052 762.015 392.164 762.297C391.936 761.705 391.759 761.095 391.637 760.473C391.601 760.298 391.568 760.122 391.537 759.946C391.514 759.81 391.461 759.326 391.519 759.863C391.492 759.61 391.466 759.357 391.453 759.103C391.434 758.636 391.444 758.169 391.484 757.703C391.512 757.328 391.484 757.703 391.474 757.77C391.5 757.642 391.52 757.514 391.549 757.386C391.611 757.105 391.701 756.839 391.79 756.565C391.645 757.015 391.876 756.399 391.951 756.265C392.026 756.131 392.432 755.627 392.136 755.956C392.299 755.772 392.472 755.597 392.654 755.431C392.886 755.221 392.264 755.655 392.726 755.378C392.881 755.285 393.026 755.185 393.19 755.099C393.301 755.04 393.414 754.982 393.529 754.932C393.242 755.057 393.557 754.932 393.605 754.914C393.902 754.816 394.205 754.736 394.512 754.673C394.065 754.749 394.697 754.686 394.862 754.689C395.027 754.692 395.192 754.701 395.356 754.719C395.497 754.732 395.491 754.732 395.339 754.719C395.445 754.738 395.55 754.76 395.653 754.786C396.236 754.924 396.783 755.189 397.253 755.561C397.276 755.577 397.553 755.786 397.353 755.625C397.461 755.709 397.565 755.798 397.668 755.887C397.943 756.126 398.204 756.381 398.448 756.652C399.09 757.367 399.527 758.241 399.714 759.183C399.707 759.15 399.826 759.771 399.782 759.492C399.738 759.213 399.816 759.855 399.813 759.818C399.835 760.126 399.842 760.435 399.832 760.744C399.832 760.921 399.818 761.099 399.803 761.276C399.81 761.188 399.876 760.936 399.793 761.347C399.724 761.679 399.635 762.006 399.525 762.327C399.325 762.927 399.611 762.176 399.447 762.506C399.357 762.689 399.26 762.869 399.155 763.044C399.034 763.288 398.874 763.512 398.681 763.705C398.456 763.956 398.212 764.19 397.952 764.405C398.168 764.227 397.911 764.432 397.875 764.455C397.707 764.563 397.541 764.672 397.365 764.769C396.922 765.009 396.432 765.149 395.929 765.178C395.272 765.199 394.625 765.012 394.081 764.643C393.623 764.375 393.077 764.3 392.564 764.435C392.051 764.57 391.612 764.902 391.344 765.36C391.077 765.818 391.002 766.364 391.137 766.877C391.271 767.391 391.604 767.829 392.062 768.097C395.762 770.297 400.062 768.803 402.388 765.404C403.349 763.876 403.856 762.107 403.849 760.302C403.842 758.497 403.322 756.731 402.349 755.211C400.368 752.165 396.649 749.9 392.949 750.928C391.393 751.359 390.018 752.281 389.03 753.557C388.041 754.833 387.492 756.395 387.464 758.009C387.217 761.844 388.778 765.97 392.064 768.097C392.522 768.365 393.068 768.44 393.581 768.305C393.835 768.238 394.073 768.122 394.283 767.964C394.492 767.805 394.668 767.606 394.8 767.379C394.933 767.153 395.02 766.902 395.055 766.642C395.091 766.381 395.075 766.117 395.008 765.863C394.942 765.609 394.826 765.37 394.667 765.161C394.508 764.951 394.31 764.776 394.083 764.643L394.082 764.649Z" fill="#211715"/>
<path d="M405.936 739.986V762.279C405.936 764.853 409.936 764.857 409.936 762.279V739.986C409.936 737.412 405.936 737.408 405.936 739.986Z" fill="#211715"/>
<path d="M407.241 766.071C401.09 767.114 394.812 769.514 385.741 771.019C391.332 773.714 401.847 778.89 411.902 783.919C420.639 780.361 423.126 779.741 428.594 777.645C419.446 772.925 407.259 766.068 407.241 766.071Z" fill="white"/>
<path d="M406.71 764.143C399.458 765.399 392.48 767.865 385.21 769.09C383.546 769.371 383.239 772.025 384.733 772.746C390.644 775.597 396.533 778.504 402.407 781.421C404.172 782.296 405.935 783.173 407.698 784.052C408.622 784.513 409.541 784.985 410.469 785.436C410.943 785.693 411.474 785.824 412.013 785.818C412.552 785.811 413.081 785.667 413.548 785.399C416.307 784.287 419.084 783.224 421.88 782.211C424.298 781.34 426.725 780.494 429.126 779.576C430.605 779.011 431.264 776.776 429.604 775.921C424.866 773.472 420.177 770.929 415.504 768.36C413.096 767.037 410.728 765.538 408.252 764.344C405.943 763.232 403.912 766.68 406.233 767.798C408.709 768.992 411.077 770.491 413.486 771.814C418.159 774.383 422.848 776.925 427.586 779.375L428.064 775.719C422.509 777.843 416.886 779.753 411.373 781.993L412.914 782.193C404.214 777.843 395.514 773.514 386.753 769.293L386.275 772.948C393.545 771.723 400.522 769.257 407.775 768.001C408.285 767.857 408.717 767.518 408.979 767.058C409.241 766.598 409.311 766.053 409.175 765.541C409.024 765.035 408.683 764.607 408.224 764.346C407.764 764.086 407.222 764.013 406.71 764.143Z" fill="#211715"/>
<path d="M423.346 775.334C423.936 770.554 428.938 766.568 435.361 769.334C436.331 772.316 438.016 776.824 439.052 780.592C437.64 781.735 436.419 782.727 436.419 782.727C434.353 785.221 429.789 784.772 427.307 783.262C425.961 782.455 424.873 781.28 424.171 779.875C423.47 778.471 423.183 776.895 423.346 775.334Z" fill="white"/>
<path d="M434.669 766.95C431.989 766.096 429.083 766.313 426.56 767.557C424.398 768.706 422.736 770.613 421.895 772.913C419.915 778.113 423.047 783.969 428.141 785.834C431.258 786.976 435.521 786.809 437.833 784.134C438.196 783.753 438.399 783.246 438.399 782.72C438.399 782.193 438.196 781.686 437.833 781.305C437.456 780.934 436.948 780.727 436.419 780.727C435.89 780.727 435.382 780.934 435.005 781.305C434.905 781.416 434.805 781.518 434.705 781.627C434.639 781.701 434.336 781.942 434.647 781.706C434.436 781.858 434.213 781.993 433.982 782.112C433.882 782.164 433.533 782.277 433.897 782.155C433.784 782.193 433.674 782.233 433.56 782.267C433.272 782.354 432.978 782.42 432.68 782.467C433.08 782.404 432.68 782.467 432.573 782.467C432.418 782.473 432.264 782.486 432.109 782.489C431.828 782.489 431.549 782.474 431.269 782.463C431.169 782.463 430.759 782.412 431.149 782.463C431.026 782.447 430.903 782.425 430.781 782.403C430.449 782.342 430.121 782.264 429.797 782.17C429.54 782.095 429.288 782.006 429.037 781.913C429.423 782.055 428.773 781.785 428.665 781.728C428.436 781.603 428.214 781.463 428.002 781.311C427.515 780.973 428.163 781.451 427.896 781.23C427.758 781.115 427.622 781 427.49 780.879C427.298 780.704 427.113 780.523 426.935 780.333C426.859 780.252 426.784 780.168 426.71 780.084C426.71 780.084 426.367 779.664 426.554 779.904C426.741 780.144 426.425 779.721 426.423 779.717C426.363 779.63 426.304 779.542 426.248 779.453C426.095 779.214 425.955 778.967 425.829 778.713C425.773 778.6 425.72 778.485 425.668 778.371C425.695 778.431 425.812 778.771 425.7 778.434C425.624 778.2 425.54 777.972 425.476 777.734C425.426 777.548 425.386 777.36 425.347 777.171C425.34 777.135 425.272 776.671 425.316 777.013C425.359 777.344 425.306 776.85 425.302 776.785C425.283 776.342 425.292 775.897 425.329 775.455C425.303 775.904 425.318 775.523 425.362 775.3C425.415 775.03 425.481 774.763 425.562 774.5C425.617 774.324 425.686 774.153 425.744 773.978C425.884 773.553 425.58 774.246 425.732 774.011C425.792 773.917 425.832 773.8 425.883 773.701C425.978 773.516 426.08 773.335 426.189 773.16C426.26 773.044 426.738 772.395 426.389 772.827C426.649 772.5 426.933 772.193 427.238 771.909C427.314 771.839 427.794 771.445 427.572 771.615C427.311 771.815 427.687 771.538 427.711 771.522C427.83 771.444 427.947 771.365 428.069 771.291C428.269 771.167 428.483 771.053 428.697 770.948C428.722 770.936 429.157 770.748 428.855 770.871C428.57 770.989 429.037 770.809 429.095 770.789C429.354 770.7 429.617 770.625 429.883 770.563C430.059 770.523 430.754 770.434 430.258 770.479C430.85 770.432 431.444 770.426 432.037 770.462C432.123 770.462 432.429 770.508 432.014 770.45C432.188 770.475 432.361 770.505 432.533 770.539C432.892 770.611 433.245 770.704 433.596 770.809C434.107 770.95 434.654 770.882 435.115 770.62C435.577 770.358 435.915 769.923 436.056 769.412C436.197 768.901 436.129 768.354 435.867 767.893C435.605 767.431 435.17 767.093 434.659 766.952L434.669 766.95Z" fill="#211715"/>
<path d="M440.793 752.922C440.717 752.388 440.763 752.69 440.793 753.001C440.815 753.263 440.836 753.525 440.855 753.787C440.908 754.535 440.948 755.287 440.983 756.035C441.058 757.677 441.113 759.324 441.074 760.967C441.067 761.289 441.057 761.611 441.035 761.931C441.023 762.118 441.011 762.831 441.013 762.295C441.013 762.825 440.832 762.295 441.087 762.253C440.806 762.304 440.268 762.879 439.975 763.116C437.964 764.739 436.01 766.431 433.995 768.049C433.74 768.296 433.557 768.607 433.467 768.95C433.376 769.293 433.381 769.655 433.481 769.995C434.73 773.784 436.143 777.52 437.197 781.371C437.282 781.664 437.432 781.934 437.636 782.161C437.84 782.388 438.093 782.566 438.376 782.682C438.658 782.797 438.963 782.847 439.268 782.828C439.573 782.809 439.869 782.721 440.135 782.571C448.428 777.932 460.017 773.205 459.771 761.95C459.555 757 458.778 752.09 457.453 747.316C456.413 742.764 454.483 738.464 451.773 734.662C448.493 730.362 444.582 726.071 439.739 723.516C437.463 722.316 435.439 725.767 437.72 726.97C441.584 729.008 444.736 732.291 447.482 735.636C450.051 738.832 451.948 742.513 453.06 746.46C454.244 750.575 455.074 754.784 455.539 759.04C455.825 761.422 456.051 763.988 455.117 766.263C454.304 768.026 453.111 769.588 451.623 770.835C447.692 774.398 442.7 776.553 438.116 779.117L441.054 780.317C440 776.466 438.587 772.73 437.338 768.941L436.823 770.887C438.978 769.156 441.061 767.338 443.223 765.616C444.723 764.425 444.988 763.262 445.061 761.427C445.211 758.235 445.075 755.036 444.655 751.868C444.512 751.358 444.173 750.924 443.713 750.662C443.252 750.4 442.707 750.33 442.195 750.468C441.69 750.62 441.264 750.96 441.003 751.418C440.742 751.876 440.668 752.417 440.795 752.928L440.793 752.922Z" fill="#211715"/>
<path d="M407.092 705.825C406.815 711.675 408.776 717.411 412.577 721.867C416.023 725.819 420.892 728.249 426.122 728.628C431.352 729.007 436.52 727.303 440.5 723.889C443.249 724.033 445.959 723.184 448.135 721.498C449.109 720.738 449.874 719.743 450.358 718.606C450.841 717.47 451.028 716.229 450.9 715C450.745 714.147 450.382 713.345 449.844 712.665C449.306 711.985 448.609 711.448 447.815 711.1C449.316 707.197 449.486 702.907 448.298 698.897C447.111 694.887 444.632 691.382 441.247 688.926C432.347 682.604 419.773 683.474 412.462 691.792C409.114 695.714 407.218 700.67 407.092 705.825Z" fill="white"/>
<path d="M409.989 695.3C408.689 697.628 407.809 700.167 407.389 702.8C412.676 703.268 418.003 702.627 423.027 700.916C423.168 700.868 423.317 700.85 423.465 700.863C423.613 700.876 423.757 700.919 423.888 700.99C424.519 701.345 423.757 702.722 423.401 703.352C425.641 703.983 431.126 702.952 433.55 701.62C434.898 704.896 436.273 706.603 438.915 707.84L446.007 710.665C446.634 710.7 447.249 710.85 447.82 711.11C449.319 707.206 449.487 702.916 448.298 698.906C447.11 694.896 444.631 691.391 441.246 688.934C432.346 682.612 419.772 683.482 412.461 691.8C411.517 692.877 410.689 694.05 409.989 695.3Z" fill="white"/>
<path d="M450.058 710.788C451.362 706.698 451.39 702.308 450.138 698.202C448.887 694.096 446.415 690.468 443.052 687.8C439.734 685.261 435.817 683.623 431.68 683.044C427.542 682.464 423.326 682.964 419.438 684.493C411.238 687.857 406.096 695.513 405.204 704.221C404.726 708.542 405.401 712.913 407.16 716.889C408.918 720.865 411.698 724.305 415.216 726.859C423.402 732.576 435.239 731.57 442.479 724.785C444.362 723.021 441.529 720.197 439.651 721.956C436.969 724.363 433.632 725.92 430.065 726.429C426.497 726.939 422.858 726.379 419.609 724.819C412.877 721.456 409.118 714.232 409.077 706.857C409.038 699.768 412.411 692.869 418.66 689.287C421.669 687.63 425.052 686.772 428.487 686.795C431.922 686.818 435.293 687.72 438.28 689.416C441.745 691.363 444.429 694.451 445.873 698.154C447.317 701.857 447.433 705.946 446.2 709.725C445.408 712.18 449.27 713.232 450.058 710.788Z" fill="#211715"/>
<path d="M446.01 712.661C446.481 712.695 445.791 712.574 446.21 712.684C446.388 712.731 446.568 712.768 446.744 712.825C446.844 712.857 447.254 713.052 446.951 712.898C447.116 712.982 447.28 713.067 447.437 713.165C447.509 713.209 447.901 713.493 447.637 713.282C447.781 713.399 447.919 713.523 448.049 713.655C448.181 713.785 448.306 713.923 448.421 714.068C448.187 713.768 448.493 714.201 448.534 714.268C448.631 714.426 448.718 714.59 448.795 714.759C448.635 714.403 448.829 714.898 448.852 714.979C448.905 715.159 448.946 715.343 448.975 715.529C448.918 715.135 448.969 715.688 448.975 715.771C448.975 715.971 448.966 716.161 448.955 716.357C448.931 716.804 449.023 716.204 448.913 716.603C448.824 716.929 448.65 717.559 448.592 717.694C448.317 718.288 447.959 718.839 447.528 719.331C447.039 719.882 446.451 720.336 445.794 720.669C445.125 721.067 444.401 721.366 443.646 721.555C443.227 721.672 442.801 721.767 442.371 721.837C442.229 721.859 442.229 721.859 442.371 721.837C442.265 721.85 442.159 721.86 442.053 721.869C441.808 721.89 441.564 721.9 441.318 721.906C440.788 721.906 440.279 722.117 439.904 722.492C439.529 722.867 439.318 723.376 439.318 723.906C439.318 724.436 439.529 724.945 439.904 725.32C440.279 725.695 440.788 725.906 441.318 725.906C446.089 725.789 450.91 723.206 452.531 718.526C452.919 717.459 453.059 716.318 452.94 715.189C452.821 714.06 452.445 712.974 451.842 712.012C451.195 711.042 450.332 710.234 449.321 709.652C448.311 709.07 447.179 708.73 446.015 708.657C445.485 708.66 444.978 708.872 444.604 709.246C444.23 709.62 444.018 710.127 444.015 710.657C444.027 711.184 444.242 711.685 444.615 712.057C444.987 712.43 445.488 712.645 446.015 712.657L446.01 712.661Z" fill="#211715"/>
<path d="M419.708 713.1C419.683 713.568 419.554 714.024 419.331 714.436C419.108 714.848 418.796 715.205 418.418 715.482C417.881 715.826 417.232 715.949 416.607 715.824C416.18 715.748 415.777 715.573 415.431 715.313C415.085 715.052 414.805 714.713 414.614 714.324C414.338 713.7 414.266 713.004 414.41 712.337C414.553 711.67 414.905 711.065 415.414 710.61C415.91 710.197 416.544 709.988 417.189 710.023C417.833 710.059 418.44 710.336 418.888 710.801C419.187 711.099 419.415 711.461 419.557 711.858C419.699 712.256 419.75 712.68 419.708 713.1Z" fill="#211715"/>
<path d="M431.867 715.584C431.841 716.052 431.712 716.508 431.489 716.92C431.266 717.332 430.955 717.689 430.577 717.966C430.04 718.311 429.391 718.434 428.765 718.309C428.339 718.233 427.936 718.058 427.59 717.797C427.244 717.536 426.964 717.198 426.773 716.809C426.497 716.185 426.425 715.489 426.569 714.821C426.713 714.154 427.064 713.549 427.573 713.094C428.069 712.681 428.703 712.472 429.347 712.507C429.991 712.543 430.598 712.821 431.046 713.286C431.344 713.584 431.573 713.945 431.715 714.343C431.857 714.74 431.909 715.164 431.867 715.584Z" fill="#211715"/>
<path d="M431.625 702.148C432.267 703.855 433.174 705.45 434.311 706.876C435.306 708.018 436.533 708.934 437.911 709.563C438.382 709.819 438.931 709.891 439.452 709.763C439.832 709.659 440.172 709.445 440.431 709.148C440.689 708.851 440.854 708.484 440.905 708.094C440.956 707.703 440.891 707.307 440.717 706.953C440.544 706.6 440.27 706.305 439.93 706.107C439.253 705.794 438.611 705.409 438.015 704.959L438.415 705.272C437.838 704.819 437.319 704.296 436.872 703.714L437.184 704.119C436.458 703.12 435.858 702.036 435.397 700.89L435.597 701.368C435.557 701.273 435.517 701.178 435.478 701.083C435.323 700.587 434.997 700.162 434.559 699.883C434.332 699.75 434.081 699.664 433.821 699.628C433.561 699.592 433.296 699.608 433.042 699.675C432.788 699.742 432.549 699.858 432.34 700.017C432.13 700.175 431.954 700.374 431.822 700.601C431.684 700.83 431.594 701.085 431.56 701.35C431.525 701.616 431.547 701.885 431.622 702.142L431.625 702.148Z" fill="#211715"/>
<path d="M432.544 699.889C430.261 701.089 426.357 702.024 423.936 701.419L425.131 704.357C425.901 702.981 426.741 701.068 425.455 699.707C423.969 698.135 421.855 699.242 420.155 699.707C416.206 700.738 412.115 701.122 408.043 700.844C405.471 700.701 405.479 704.701 408.043 704.844C410.752 705.005 413.47 704.911 416.162 704.564C417.43 704.397 418.689 704.181 419.935 703.889C420.581 703.739 421.222 703.572 421.858 703.389C422.215 703.289 422.569 703.174 422.922 703.059C423.064 703.014 423.206 702.967 423.347 702.918C423.627 702.818 423.63 702.818 423.357 702.918L422.475 702.404L422.624 702.539L422.11 701.657C421.91 701.179 422.284 701.221 422.057 701.622C421.923 701.858 421.808 702.105 421.675 702.343C421.525 702.608 421.436 702.904 421.417 703.209C421.397 703.513 421.447 703.818 421.561 704.101C421.676 704.383 421.854 704.636 422.081 704.84C422.307 705.045 422.577 705.195 422.87 705.28C424.823 705.651 426.831 705.617 428.77 705.18C430.786 704.878 432.741 704.259 434.564 703.346C436.842 702.146 434.823 698.691 432.545 699.892L432.544 699.889Z" fill="#211715"/>
<path d="M347.1 700.89C347.414 702 349.117 708.431 349.27 708.659C349.61 709.164 350.723 708.912 351.322 708.797C353.862 708.257 356.259 707.186 358.356 705.655C360.453 704.123 362.202 702.165 363.489 699.909C365.808 696.007 366.569 691.374 365.619 686.935C365.544 686.643 365.384 686.38 365.16 686.178C364.936 685.977 364.657 685.846 364.359 685.802C360.425 685.158 354.447 684.477 347.982 688.093C344.416 690.093 341.097 695.198 339.925 699.113C341.982 699.543 345.869 700.552 347.1 700.89Z" fill="#F8B8B4"/>
<path d="M345.171 701.422C345.637 703.086 346.071 704.758 346.531 706.422C346.954 707.963 347.176 710.096 348.878 710.735C350.108 711.043 351.402 710.984 352.598 710.563C354.112 710.189 355.575 709.631 356.953 708.9C359.6 707.46 361.912 705.476 363.738 703.079C365.563 700.681 366.861 697.925 367.545 694.99C367.891 693.438 368.055 691.851 368.032 690.261C368 688.761 367.941 686.683 367.091 685.387C365.751 683.345 362.317 683.426 360.139 683.32C357.132 683.155 354.121 683.547 351.257 684.475C347.989 685.47 345.067 687.362 342.821 689.936C340.653 692.468 339.013 695.406 337.995 698.58C337.859 699.092 337.929 699.637 338.191 700.097C338.453 700.557 338.885 700.896 339.395 701.04C341.804 701.552 344.195 702.169 346.571 702.818C349.057 703.497 350.118 699.639 347.634 698.961C345.259 698.312 342.867 697.695 340.458 697.183L341.858 699.643C343.143 695.518 345.932 691.343 349.858 689.362C353.912 687.442 358.459 686.82 362.88 687.581C363.231 687.607 363.579 687.658 363.923 687.733C363.646 687.648 363.707 686.989 363.789 687.875C363.814 688.148 363.9 688.425 363.935 688.7C364.101 690.021 364.097 691.358 363.925 692.678C363.591 695.129 362.718 697.476 361.368 699.549C360.188 701.4 358.66 703.005 356.868 704.274C355.945 704.926 354.958 705.484 353.923 705.937C352.858 706.316 351.772 706.634 350.671 706.891C350.571 706.921 350.22 706.926 350.203 706.959C350.381 706.614 351.103 708.715 351.113 707.883C351.07 707.635 350.997 707.393 350.897 707.162C350.673 706.389 350.462 705.613 350.25 704.838C349.842 703.345 349.45 701.848 349.033 700.357C348.335 697.883 344.475 698.935 345.171 701.422Z" fill="#211715"/>
<path d="M519.138 692.892C518.257 693.719 513.254 698.573 512.994 698.692C512.415 698.962 511.553 698.134 511.077 697.708C509.088 695.851 507.515 693.595 506.46 691.087C505.405 688.579 504.893 685.876 504.956 683.156C504.985 678.522 506.712 674.06 509.809 670.613C510.082 670.317 510.438 670.11 510.831 670.021C511.224 669.932 511.635 669.964 512.009 670.113C515.873 671.677 521.127 673.936 524.909 680.551C526.849 683.951 527.509 689.977 526.779 694.06C526.756 694.199 526.703 694.331 526.624 694.448C526.545 694.564 526.442 694.662 526.321 694.735C526.201 694.808 526.066 694.855 525.926 694.871C525.787 694.887 525.645 694.873 525.511 694.829C523.334 694.114 520.236 693.2 519.138 692.892Z" fill="#FBDBD9"/>
<path d="M517.724 691.478C516.681 692.461 515.654 693.462 514.618 694.453C514.054 694.992 513.49 695.532 512.918 696.067C512.602 696.367 511.886 696.795 511.701 697.184C511.938 696.684 513.115 697.125 512.901 696.667C512.776 696.527 512.636 696.402 512.482 696.295C511.99 695.85 511.522 695.379 511.082 694.883C510.244 693.917 509.525 692.854 508.942 691.716C507.795 689.493 507.129 687.054 506.987 684.557C506.826 681.977 507.224 679.393 508.152 676.98C508.61 675.818 509.197 674.711 509.903 673.68C510.22 673.207 510.569 672.755 510.947 672.329C511.331 671.897 511.256 671.943 511.82 672.181C515.577 673.772 519.011 675.79 521.545 679.074C523.142 681.125 524.216 683.534 524.673 686.093C524.915 687.401 525.043 688.728 525.058 690.058C525.069 690.723 525.058 691.39 525.012 692.058C524.996 692.289 524.979 692.521 524.954 692.751C524.942 692.906 524.923 693.061 524.899 693.214C524.789 693.674 524.841 693.643 525.056 693.121L526.065 692.848C525.574 692.795 525.094 692.663 524.644 692.459C523.972 692.248 523.299 692.042 522.625 691.839C521.64 691.539 520.654 691.249 519.664 690.969C517.182 690.269 516.123 694.127 518.6 694.826C519.959 695.21 521.311 695.616 522.66 696.026C524.306 696.532 526.212 697.495 527.729 696.15C528.982 695.04 528.973 693.084 529.04 691.521C529.099 689.785 528.998 688.047 528.74 686.329C528.238 683.07 527.002 679.968 525.124 677.259C523.245 674.549 520.775 672.302 517.9 670.688C516.783 670.045 515.627 669.472 514.439 668.971C512.989 668.348 511.585 667.647 509.984 668.202C508.261 668.802 507.048 670.69 506.123 672.167C505.14 673.758 504.374 675.473 503.844 677.267C502.816 680.773 502.682 684.48 503.453 688.051C504.224 691.622 505.877 694.944 508.26 697.713C509.433 699.04 511.094 700.894 513.031 700.713C514.012 700.477 514.884 699.917 515.508 699.125C517.208 697.535 518.861 695.903 520.552 694.308C522.429 692.536 519.6 689.712 517.724 691.478Z" fill="#211715"/>
<path d="M502.88 766.4C502.563 767.839 500.868 776.167 500.69 776.468C500.29 777.138 498.855 776.899 498.083 776.797C494.803 776.297 491.667 775.109 488.879 773.311C486.091 771.513 483.715 769.145 481.906 766.364C478.67 761.572 477.353 755.739 478.219 750.022C478.279 749.645 478.45 749.295 478.709 749.016C478.969 748.737 479.306 748.541 479.677 748.454C486.694 746.627 494.133 747.355 500.663 750.508C505.081 752.653 509.554 758.008 511.554 762.723C511.599 762.833 511.621 762.952 511.617 763.07C511.613 763.189 511.584 763.306 511.532 763.413C511.479 763.52 511.405 763.615 511.313 763.691C511.221 763.767 511.115 763.822 511 763.854C508.306 764.627 504.26 765.935 502.88 766.4Z" fill="#F8B8B4"/>
<path d="M500.952 765.87C500.584 767.552 500.245 769.24 499.89 770.924C499.69 771.865 499.49 772.805 499.29 773.746C499.067 774.388 498.913 775.052 498.832 775.727C498.852 776.527 497.359 773.237 499.568 774.927C499.351 774.906 499.132 774.896 498.914 774.899C498.305 774.843 497.701 774.747 497.104 774.614C495.658 774.323 494.249 773.87 492.904 773.264C490.289 772.053 487.931 770.35 485.96 768.248C483.805 766.007 482.161 763.325 481.142 760.387C480.123 757.45 479.752 754.326 480.055 751.232C480.137 750.532 480.061 750.476 480.472 750.327C480.918 750.198 481.373 750.105 481.833 750.047C483.095 749.804 484.371 749.639 485.653 749.552C488.506 749.347 491.373 749.585 494.153 750.258C497.65 751.012 500.898 752.644 503.591 755C504.889 756.196 506.061 757.52 507.091 758.953C507.644 759.724 508.156 760.522 508.627 761.345C508.821 761.685 509.008 762.029 509.185 762.377C509.301 762.603 509.412 762.831 509.52 763.06C509.724 763.427 509.744 763.502 509.579 763.285L509.852 762.276C510.261 761.994 510.25 761.941 509.821 762.116C509.651 762.165 509.481 762.216 509.312 762.267C508.958 762.372 508.605 762.479 508.253 762.587C507.471 762.826 506.69 763.069 505.911 763.317C504.719 763.695 503.529 764.077 502.344 764.476C499.917 765.294 500.958 769.158 503.407 768.333C504.947 767.815 506.496 767.321 508.047 766.833C509.709 766.314 512.314 766.062 513.247 764.415C514.297 762.553 512.639 760.209 511.676 758.634C510.505 756.722 509.134 754.941 507.586 753.319C501.768 747.228 492.897 744.837 484.65 745.632C482.975 745.795 481.31 746.056 479.665 746.411C477.433 746.89 476.417 748.385 476.131 750.561C475.605 754.954 476.272 759.408 478.061 763.455C479.682 767.222 482.173 770.551 485.33 773.167C488.488 775.784 492.221 777.615 496.223 778.508C498.066 778.872 500.661 779.483 502.101 777.884C502.68 776.995 503.029 775.977 503.117 774.92C503.7 772.262 504.225 769.591 504.806 766.932C505.358 764.424 501.5 763.353 500.952 765.87Z" fill="#211715"/>
<path d="M623.5 641C623.5 657.007 610.788 671.626 589.943 682.274C569.126 692.908 540.332 699.5 508.5 699.5C476.668 699.5 447.874 692.908 427.057 682.274C406.212 671.626 393.5 657.007 393.5 641C393.5 624.993 406.212 610.374 427.057 599.726C447.874 589.092 476.668 582.5 508.5 582.5C540.332 582.5 569.126 589.092 589.943 599.726C610.788 610.374 623.5 624.993 623.5 641Z" fill="#7EB9FF" stroke="black"/>
<path d="M624.5 606C624.5 622.007 611.788 636.626 590.943 647.274C570.126 657.908 541.332 664.5 509.5 664.5C477.668 664.5 448.874 657.908 428.057 647.274C407.212 636.626 394.5 622.007 394.5 606C394.5 589.993 407.212 575.374 428.057 564.726C448.874 554.092 477.668 547.5 509.5 547.5C541.332 547.5 570.126 554.092 590.943 564.726C611.788 575.374 624.5 589.993 624.5 606Z" fill="#90ACAE" stroke="black"/>
<line x1="365.733" y1="297.577" x2="403.733" y2="273.577" stroke="white"/>
<path d="M603.5 474.5C603.5 486.48 593.115 497.479 575.963 505.513C558.852 513.529 535.177 518.5 509 518.5C482.823 518.5 459.148 513.529 442.037 505.513C424.885 497.479 414.5 486.48 414.5 474.5C414.5 462.52 424.885 451.521 442.037 443.487C459.148 435.471 482.823 430.5 509 430.5C535.177 430.5 558.852 435.471 575.963 443.487C593.115 451.521 603.5 462.52 603.5 474.5Z" fill="#7EB9FF" stroke="black"/>
<path d="M603.5 474.5C603.5 486.48 593.115 497.479 575.963 505.513C558.852 513.529 535.177 518.5 509 518.5C482.823 518.5 459.148 513.529 442.037 505.513C424.885 497.479 414.5 486.48 414.5 474.5C414.5 462.52 424.885 451.521 442.037 443.487C459.148 435.471 482.823 430.5 509 430.5C535.177 430.5 558.852 435.471 575.963 443.487C593.115 451.521 603.5 462.52 603.5 474.5Z" fill="#7EB9FF" stroke="black"/>
<path d="M565.5 469.5C565.5 476.235 559.7 482.484 549.97 487.079C540.279 491.656 526.855 494.5 512 494.5C497.145 494.5 483.721 491.656 474.03 487.079C464.3 482.484 458.5 476.235 458.5 469.5C458.5 462.765 464.3 456.516 474.03 451.921C483.721 447.344 497.145 444.5 512 444.5C526.855 444.5 540.279 447.344 549.97 451.921C559.7 456.516 565.5 462.765 565.5 469.5Z" fill="black" fill-opacity="0.8" stroke="black"/>
<path d="M445.681 630.5V600.5L445.911 568L446.059 547.128L446.117 539L446.34 507.5L446.931 424.223L446.988 416.22L447.071 404.5L447.5 344L434.553 325L431 633.5L445.681 630.5Z" fill="#3E3E3E"/>
<path d="M405.5 273L415.5 276.5L593.5 181.5L584.5 173.5L405.5 273Z" fill="#DCE4DB"/>
<path d="M415.5 276.5L454.5 337.5L633.5 244L593.5 181.5L415.5 276.5Z" fill="#3E3E3E"/>
<path d="M405.5 273L365 299L370 310.5L409 287.5L434.553 325L447.5 344L454.5 349L561 292.14L586 278.792L600 271.318L631.5 254.5L633.5 244L454.5 337.5L415.5 276.5L405.5 273Z" fill="#3E3E3E"/>
<path d="M409 287.5L370 310.5L377.5 313.5L409 295.5V421.5C413.833 418.5 423.8 416.2 425 431V453.5C423.64 455.88 420.43 459.046 416 458.565C413.915 458.338 411.56 457.304 409 455V578V620.5L431 633.5L434.553 325L409 287.5Z" fill="#DCE4DB"/>
<path d="M586 278.792V449C588.833 450.333 595.7 455.1 600.5 463.5L600 271.318L586 278.792Z" fill="#3E3E3E"/>
<path d="M485 384.5L480.5 386.5L447.071 404.5L446.988 416.22L492 391.5C492.8 386.3 487.667 384.667 485 384.5Z" fill="#DCE4DB"/>
<path d="M492 391.5L446.988 416.22L446.931 424.223L486.418 403L492 400V391.5Z" fill="#3E3E3E"/>
<path d="M581.5 353V343L539.132 366.427C539.188 366.577 539.15 366.611 539 366.5V376L561 364.5L581.5 353Z" fill="#3E3E3E"/>
<path d="M574 336.5L561 344L533.125 359C535.922 361.627 538.837 365.636 539.132 366.427L581.5 343C580.7 338.6 576.167 336.833 574 336.5Z" fill="#DCE4DB"/>
<path d="M492 391.5V400L486.418 403C489.953 409.8 497.946 409.5 501.5 408.5C503.948 407.162 506.875 405.55 510 403.814C522.833 396.686 539 387.465 539 386.5V376V366.5L492 391.5Z" fill="#3E3E3E"/>
<path d="M526 354C524.821 354.608 481.586 377.923 480.5 380.5C479.414 383.077 480.5 386.5 480.5 386.5L485 384.5C487.667 384.667 492.8 386.3 492 391.5L539 366.5L539.132 366.427C538.837 365.636 535.922 361.627 533.125 359C530.965 357.266 527.179 353.392 526 354Z" fill="#DCE4DB"/>
<path d="M561 292.14V344L574 336.5C576.167 336.833 580.7 338.6 581.5 343V353L561 364.5V437.5C566 438.833 578 443 586 449V278.792L561 292.14Z" fill="#DCE4DB"/>
<path d="M394 463L409 455V442.5L394 449.5C391.191 445.669 388.232 445.168 385.983 445.782L383 447.5V457C384.6 462.6 391 463.333 394 463Z" fill="#3E3E3E"/>
<path d="M425 453.5V431L416 436V458.565C420.43 459.046 423.64 455.88 425 453.5Z" fill="#3E3E3E"/>
<path d="M409 442.5V455C411.56 457.304 413.915 458.338 416 458.565V436L409 442.5Z" fill="#3E3E3E"/>
<path d="M394 449.5L409 442.5C407.8 439.7 402.167 438.333 399.5 438L385.983 445.782C388.232 445.168 391.191 445.669 394 449.5Z" fill="#DCE4DB"/>
<path d="M399.5 426.5V438C402.167 438.333 407.8 439.7 409 442.5L416 436C415 425 402 426.333 399.5 426.5Z" fill="#3E3E3E"/>
<path d="M425 431C423.8 416.2 413.833 418.5 409 421.5L399.5 426.5C402 426.333 415 425 416 436L425 431Z" fill="#DCE4DB"/>
<path d="M603.5 507.5V478.205C600.723 498.776 558.006 518.5 514 518.5C476.4 518.5 453.227 511.167 446.34 507.5L446.117 539C447.714 539.783 452.255 541.419 459 543.178C477.239 547.932 511.599 553.58 547.5 545.686C549.164 545.32 550.831 544.925 552.5 544.5C582.205 536.928 595.69 525.01 600.827 516C602.746 512.635 603.5 509.675 603.5 507.5Z" fill="#3E3E3E"/>
<path d="M459 543.178V572.192C479.746 577.343 515.176 581.201 547.5 573.924V545.686C511.599 553.58 477.239 547.932 459 543.178Z" fill="#90ACAE"/>
<path d="M459 543.178C452.255 541.419 447.714 539.783 446.117 539L446.059 547.128L445.911 568C449.017 569.366 453.491 570.824 459 572.192V543.178Z" fill="#90ACAE"/>
<path d="M573 599.196V565.235C572.373 565.537 571.742 565.833 571.107 566.123C563.627 569.539 555.662 572.087 547.5 573.924C515.176 581.201 479.746 577.343 459 572.192C453.491 570.824 449.017 569.366 445.911 568L445.681 600.5C457.467 605.227 474.708 610.028 494 612.056C506.451 613.365 519.756 613.518 533 611.751C546.74 609.918 560.414 606.018 573 599.196Z" fill="#90ACAE"/>
<path d="M445.681 600.5V630.5C483.486 644.599 556.891 661.558 600.827 609V576.5C592.62 586.271 583.165 593.687 573 599.196C560.414 606.018 546.74 609.918 533 611.751C519.756 613.518 506.451 613.365 494 612.056C474.708 610.028 457.467 605.227 445.681 600.5Z" fill="#90ACAE"/>
<path d="M600.827 576.5V570.5V544C593.159 553.202 583.602 560.125 573 565.235V599.196C583.165 593.687 592.62 586.271 600.827 576.5Z" fill="#90ACAE"/>
<path d="M552.5 544.5C550.831 544.925 549.164 545.32 547.5 545.686V573.924C555.662 572.087 563.627 569.539 571.107 566.123C571.742 565.833 572.373 565.537 573 565.235C583.602 560.125 593.159 553.202 600.827 544V516C595.69 525.01 582.205 536.928 552.5 544.5Z" fill="#90ACAE"/>
<path d="M445.681 630.5L431 633.5L409 620.5V578C396.6 586 394.167 599.333 394.5 605V607.387C396.417 626.515 441.123 675.463 533 663.5C603.685 654.296 623.036 624.621 624.5 607.609V603.5C625.385 596.833 613.5 576.5 600.827 570.5V576.5V609C556.891 661.558 483.486 644.599 445.681 630.5Z" fill="#D1D1D1"/>
<path d="M394.5 650C398.667 668.167 432.2 703.3 533 698.5C562.5 695.667 622.1 680.7 624.5 643.5V607.609C623.036 624.621 603.685 654.296 533 663.5C441.123 675.463 396.417 626.515 394.5 607.387V650Z" fill="#3E3E3E"/>
<path d="M516.5 400.182C514.301 401.419 512.106 402.645 510 403.814L510.5 494.5C517.5 494.5 516.5 494 516.5 494V400.182Z" fill="#3E3E3E"/>
<path d="M405.5 273L365 299L370 310.5M405.5 273L415.5 276.5M405.5 273L584.5 173.5L593.5 181.5M415.5 276.5L454.5 337.5L633.5 244M415.5 276.5L593.5 181.5M633.5 244L593.5 181.5M633.5 244L631.5 254.5L600 271.318M370 310.5L409 287.5L434.553 325M370 310.5L377.5 313.5L409 295.5V421.5M447.5 344L454.5 349L561 292.14M447.5 344L434.553 325M447.5 344L447.071 404.5M409 421.5C413.833 418.5 423.8 416.2 425 431M409 421.5L399.5 426.5M445.681 630.5L431 633.5M445.681 630.5V600.5M445.681 630.5C483.486 644.599 556.891 661.558 600.827 609V576.5M431 633.5L434.553 325M431 633.5L409 620.5V578M409 455L394 463C391 463.333 384.6 462.6 383 457V447.5M409 455V442.5M409 455C411.56 457.304 413.915 458.338 416 458.565M409 455V578M561 292.14V344M561 292.14L586 278.792M561 344L574 336.5C576.167 336.833 580.7 338.6 581.5 343M561 344L533.125 359M425 431V453.5C423.64 455.88 420.43 459.046 416 458.565M425 431L416 436M383 447.5L385.983 445.782M383 447.5C383.663 446.837 384.709 446.131 385.983 445.782M394 449.5V462.5M394 449.5L409 442.5M394 449.5C391.191 445.669 388.232 445.168 385.983 445.782M409 442.5C407.8 439.7 402.167 438.333 399.5 438M409 442.5L416 436M399.5 438V426.5M399.5 438L385.983 445.782M399.5 426.5C402 426.333 415 425 416 436M416 436V458.565M561 364.5V437.5C566 438.833 578 443 586 449M561 364.5L581.5 353V343M561 364.5L539 376M586 449V278.792M586 449C588.833 450.333 595.7 455.1 600.5 463.5L600 271.318M586 278.792L600 271.318M581.5 343L539.132 366.427M539 366.5C539 366.5 539 372.566 539 376M539 366.5C539.15 366.611 539.188 366.577 539.132 366.427M539 366.5V376M539 366.5L539.132 366.427M539 366.5L492 391.5M480.5 386.5C480.5 386.5 479.414 383.077 480.5 380.5C481.586 377.923 524.821 354.608 526 354C527.179 353.392 530.965 357.266 533.125 359M480.5 386.5L485 384.5C487.667 384.667 492.8 386.3 492 391.5M480.5 386.5L447.071 404.5M492 391.5L446.988 416.22M492 391.5V400L486.418 403M446.988 416.22L446.931 424.223M446.988 416.22L447.071 404.5M446.931 424.223L486.418 403M446.931 424.223L446.34 507.5M539 386.5C539 385.787 539 381.033 539 376M539 386.5V376M539 386.5C539 387.465 522.833 396.686 510 403.814M486.418 403C489.953 409.8 497.946 409.5 501.5 408.5C503.948 407.162 506.875 405.55 510 403.814M533.125 359C535.922 361.627 538.837 365.636 539.132 366.427M446.117 539L446.34 507.5M446.117 539C447.714 539.783 452.255 541.419 459 543.178M446.117 539L446.059 547.128L445.911 568M446.34 507.5C453.227 511.167 476.4 518.5 514 518.5C558.006 518.5 600.723 498.776 603.5 478.205M603.5 478.205V507.5C603.5 509.675 602.746 512.635 600.827 516M603.5 478.205C603.689 476.805 603.693 475.402 603.5 474V478.205ZM459 543.178C477.239 547.932 511.599 553.58 547.5 545.686M459 543.178V572.192M459 572.5V572.192M547.5 545.686C549.164 545.32 550.831 544.925 552.5 544.5C582.205 536.928 595.69 525.01 600.827 516M547.5 545.686V573.924M547.5 573.924C515.176 581.201 479.746 577.343 459 572.192M547.5 573.924C555.662 572.087 563.627 569.539 571.107 566.123M494 578C494 575.074 494 607.838 494 612.056M494 612.5C494 612.5 494 612.345 494 612.056M600.827 516V544M600.827 516V570.5M533 611V611.751M533 643.5V611.751M573 565.235V599.196M573 565.235C583.602 560.125 593.159 553.202 600.827 544M573 565.235C572.373 565.537 571.742 565.833 571.107 566.123M573 599.5V599.196M468 609C468 609 468 635.312 468 637.656M445.911 568L445.681 600.5M445.911 568C449.017 569.366 453.491 570.824 459 572.192M600.827 544C592.706 553.747 582.465 560.936 571.107 566.123M600.827 544V570.5M445.681 600.5C457.467 605.227 474.708 610.028 494 612.056M600.827 576.5C592.62 586.271 583.165 593.687 573 599.196M600.827 576.5V570.5M459 572.192C484.985 578.643 534.005 583.067 571.107 566.123M573 599.196C560.414 606.018 546.74 609.918 533 611.751M494 612.056C506.451 613.365 519.756 613.518 533 611.751M394.5 605C394.167 599.333 396.6 586 409 578M394.5 605V607.387M394.5 605C394.414 605.73 394.414 606.528 394.5 607.387M624.5 603.5C625.385 596.833 613.5 576.5 600.827 570.5M624.5 603.5V607.609M624.5 603.5C624.619 604.761 624.627 606.138 624.5 607.609M394.5 607.387C396.417 626.515 441.123 675.463 533 663.5C603.685 654.296 623.036 624.621 624.5 607.609M394.5 607.387V650C398.667 668.167 432.2 703.3 533 698.5C562.5 695.667 622.1 680.7 624.5 643.5V607.609M510 403.814L510.5 494.5C517.5 494.5 516.5 494 516.5 494M510 403.814L516.5 400.182M510 403.814C512.106 402.645 514.301 401.419 516.5 400.182M516.5 494C516.5 494 516.5 400.5 516.5 400.182M516.5 494V400.182" stroke="black"/>
<g clip-path="url(#clip1_0_1)">
<path d="M763.52 503.455C763.455 503.921 763.287 504.366 763.028 504.758C762.77 505.151 762.428 505.482 762.026 505.726C761.46 506.025 760.8 506.092 760.185 505.914C759.765 505.802 759.377 505.592 759.053 505.301C758.729 505.011 758.478 504.648 758.321 504.243C758.098 503.595 758.085 502.894 758.285 502.239C758.486 501.584 758.889 501.009 759.436 500.597C759.967 500.227 760.619 500.071 761.261 500.162C761.902 500.252 762.486 500.582 762.894 501.085C763.167 501.409 763.365 501.79 763.474 502.2C763.582 502.609 763.598 503.038 763.52 503.455Z" fill="#211715"/>
<path d="M756.272 590.492C756.318 605.376 756.69 620.269 757.191 635.144C757.306 638.557 757.429 641.972 757.615 645.383C757.754 647.943 761.755 647.959 761.615 645.383C760.806 630.525 760.604 615.616 760.379 600.74C760.328 597.325 760.279 593.908 760.272 590.492C760.264 587.919 756.264 587.914 756.272 590.492Z" fill="#211715"/>
<path d="M793.865 594.826C793.422 608.756 793.765 622.741 794.121 636.67C794.205 639.991 794.301 643.312 794.436 646.632C794.536 649.197 798.536 649.21 798.436 646.632C797.87 632.699 797.683 618.732 797.723 604.789C797.733 601.468 797.759 598.145 797.865 594.826C797.947 592.251 793.947 592.254 793.865 594.826Z" fill="#211715"/>
<path d="M778.172 609.016C777.606 620.016 777.305 631.056 777.191 642.071C777.172 643.971 777.105 645.892 777.247 647.788C777.438 650.339 781.439 650.36 781.247 647.788C780.927 643.521 781.221 639.152 781.317 634.882C781.458 628.653 781.644 622.425 781.874 616.2C781.961 613.805 782.048 611.409 782.174 609.016C782.306 606.443 778.306 606.45 778.174 609.016H778.172Z" fill="#211715"/>
<path d="M757.894 646.855C758.168 647.925 758.838 648.789 759.666 649.496C760.35 650.079 761.143 650.556 761.91 650.955C762.925 651.529 764.004 651.978 765.126 652.295C766.204 652.519 767.297 652.658 768.396 652.712C771.604 653.035 774.813 652.425 777.651 650.99C778.597 650.511 779.502 649.941 780.352 649.283C780.725 648.907 780.933 648.399 780.933 647.869C780.933 647.339 780.725 646.831 780.352 646.455C779.971 646.091 779.465 645.889 778.938 645.889C778.411 645.889 777.905 646.091 777.524 646.455C775.05 648.227 772.018 649.042 768.989 648.748C767.447 648.738 765.924 648.412 764.513 647.789C763.757 647.465 763.042 647.055 762.38 646.567C762.184 646.399 761.999 646.218 761.827 646.025C761.912 646.125 761.889 646.078 761.758 645.885C761.82 646.05 761.817 646.02 761.751 645.796C761.11 643.304 757.251 644.36 757.894 646.859V646.855Z" fill="#211715"/>
<path d="M780.642 648.714C780.853 648.767 781.065 648.816 781.277 648.863C783.633 649.382 786.055 649.534 788.459 649.314C790.164 649.327 791.86 649.135 793.511 648.744C794.507 648.508 795.487 648.2 796.443 647.821C796.898 647.55 797.228 647.112 797.362 646.6C797.496 646.088 797.424 645.544 797.161 645.085C796.885 644.636 796.447 644.31 795.937 644.177C795.427 644.043 794.885 644.111 794.424 644.367C794.065 644.535 794.893 644.21 794.49 644.342C794.39 644.374 794.298 644.413 794.201 644.442C793.967 644.521 793.73 644.59 793.491 644.652C792.938 644.797 792.376 644.907 791.812 644.999L791.391 645.063C791.152 645.1 791.71 645.028 791.316 645.073C790.986 645.111 790.656 645.15 790.326 645.181C789.642 645.248 788.957 645.293 788.27 645.318C786.966 645.376 785.66 645.363 784.357 645.281C784.084 645.263 783.812 645.241 783.541 645.214C783.387 645.199 783.233 645.177 783.079 645.163C783.62 645.212 783.133 645.169 783.032 645.153C782.583 645.085 782.14 644.985 781.705 644.853C781.194 644.712 780.647 644.78 780.186 645.042C779.724 645.304 779.386 645.739 779.245 646.25C779.104 646.761 779.172 647.308 779.434 647.769C779.696 648.231 780.131 648.569 780.642 648.71V648.714Z" fill="#211715"/>
<path d="M760.909 645.83C760.117 645.5 759.257 645.365 758.401 645.436C757.546 645.507 756.72 645.782 755.993 646.239C755.161 646.748 754.466 647.451 753.967 648.289C753.469 649.127 753.182 650.073 753.131 651.047C752.911 652.998 753.242 654.972 754.088 656.744C754.934 658.516 756.26 660.015 757.916 661.07C761.641 663.48 765.946 664.844 770.379 665.019C774.6 665.232 779.161 664.338 781.064 660.098C781.516 659.09 781.793 658.031 781.938 656.948C782.297 654.275 781.855 651.453 781.277 648.863C781.244 648.712 781.21 648.562 781.175 648.412C780.597 645.905 776.739 646.966 777.318 649.476C777.446 649.977 777.557 650.482 777.651 650.99C777.915 652.412 778.048 653.856 778.047 655.304C778.048 655.892 777.99 656.479 777.873 657.056C777.811 657.328 777.747 657.598 777.663 657.864C777.64 657.936 777.412 658.494 777.491 658.338C777.502 658.317 777.518 658.284 777.54 658.236C777.524 658.27 777.508 658.304 777.491 658.338C775.727 661.925 770.54 661.313 767.259 660.595C764.01 659.884 759.693 658.514 757.87 655.473C757.074 654.101 756.828 652.478 757.18 650.932C757.212 650.649 757.317 650.379 757.485 650.149C757.653 649.919 757.879 649.737 758.139 649.621C758.408 649.496 758.727 649.493 758.989 649.374C759.015 649.362 759.041 649.359 759.064 649.359C759.153 649.361 759.185 649.425 758.889 649.284C758.947 649.312 759.006 649.337 759.064 649.359C759.269 649.438 759.47 649.482 759.666 649.496C761.607 649.632 762.964 646.816 760.908 645.83H760.909Z" fill="#211715"/>
<path d="M793.323 646.978C793.361 647.569 793.424 648.158 793.511 648.744C793.645 649.641 793.838 650.532 794.087 651.413C794.14 651.593 794.178 651.775 794.2 651.959C794.202 651.978 794.204 651.997 794.206 652.016C794.206 651.572 794.192 651.797 794.2 651.959C794.201 651.988 794.203 652.015 794.206 652.036C794.241 652.318 794.252 652.602 794.238 652.886C794.226 653.127 794.199 653.365 794.176 653.605C794.172 653.658 794.169 653.696 794.168 653.722C794.157 653.932 794.235 653.448 794.141 653.823C794.079 654.072 794.022 654.319 793.945 654.565C793.928 654.618 793.813 654.908 793.772 655.021C793.755 655.069 793.751 655.085 793.775 655.037C793.794 654.998 793.79 654.998 793.772 655.021C793.717 655.094 793.529 655.399 793.504 655.448C793.45 655.513 793.414 655.557 793.398 655.579C793.366 655.622 793.402 655.587 793.504 655.474C793.469 655.51 793.434 655.545 793.398 655.579C793.365 655.611 793.331 655.642 793.297 655.673C793.131 655.823 792.953 655.964 792.765 656.095C793.137 655.833 792.56 656.195 792.47 656.243C792.255 656.351 792.034 656.442 791.811 656.541C791.559 656.64 791.549 656.64 791.783 656.551C791.682 656.582 791.58 656.612 791.478 656.64C791.013 656.762 790.538 656.86 790.058 656.931C790.043 656.933 790.027 656.935 790.011 656.938C789.837 656.961 789.872 656.957 790.116 656.926C790.097 656.927 790.077 656.929 790.058 656.931C789.899 656.945 789.74 656.957 789.58 656.968C789.284 656.989 788.986 657.005 788.691 657.016C788.139 657.037 787.586 657.038 787.028 657.016C786.761 657.005 786.495 656.981 786.229 656.966C786.091 656.953 786.016 656.946 786.003 656.945C785.989 656.945 786.047 656.952 786.176 656.966C786.117 656.96 786.06 656.952 786.003 656.945C785.945 656.938 785.887 656.93 785.829 656.922C785.217 656.84 784.612 656.732 784.009 656.614C783.708 656.545 783.394 656.526 783.084 656.558C782.774 656.59 782.475 656.673 782.203 656.802C782.111 656.846 782.022 656.895 781.938 656.948C781.526 657.21 781.225 657.579 781.085 658.001C780.918 658.508 780.999 659.051 781.31 659.508C781.622 659.966 782.138 660.302 782.746 660.442C787.666 661.402 794.693 661.542 797.652 657.376C798.789 655.621 799.223 653.608 798.892 651.633C798.742 650.667 798.528 649.713 798.325 648.755C798.28 648.546 798.236 648.337 798.195 648.126C798.175 648.027 798.156 647.928 798.137 647.829C798.098 647.601 798.103 647.634 798.15 647.928C798.06 647.619 798.034 647.3 798.074 646.984C798.074 646.458 797.824 645.953 797.378 645.581C796.932 645.209 796.328 645 795.698 645C795.067 645 794.463 645.209 794.017 645.581C793.571 645.953 793.321 646.458 793.321 646.984L793.323 646.978Z" fill="#211715"/>
<path d="M761.91 650.955C761.143 650.556 760.35 650.079 759.666 649.496C759.47 649.482 759.269 649.438 759.064 649.359C759.041 649.359 759.015 649.362 758.989 649.374C758.727 649.493 758.408 649.496 758.139 649.621C757.879 649.737 757.653 649.919 757.485 650.149C757.317 650.379 757.212 650.649 757.18 650.932C756.828 652.478 757.074 654.101 757.87 655.473C759.693 658.514 764.01 659.884 767.259 660.595C770.54 661.313 775.727 661.925 777.491 658.338C777.412 658.494 777.64 657.936 777.663 657.864C777.747 657.598 777.811 657.328 777.873 657.056C777.99 656.479 778.048 655.892 778.047 655.304C778.048 653.856 777.915 652.412 777.651 650.99C774.813 652.425 771.604 653.035 768.396 652.712C767.297 652.658 766.204 652.519 765.126 652.295C764.004 651.978 762.925 651.529 761.91 650.955Z" fill="#211715"/>
<path d="M788.459 649.314C786.055 649.534 783.633 649.382 781.277 648.863C781.855 651.453 782.297 654.275 781.938 656.948C782.022 656.895 782.111 656.846 782.203 656.802C782.475 656.673 782.774 656.59 783.084 656.558C783.394 656.526 783.708 656.545 784.009 656.614C784.612 656.732 785.217 656.84 785.829 656.922C785.887 656.93 785.945 656.938 786.003 656.945C786.016 656.946 786.091 656.953 786.229 656.966C786.495 656.981 786.761 657.005 787.028 657.016C787.586 657.038 788.139 657.037 788.691 657.016C788.986 657.005 789.284 656.989 789.58 656.968C789.74 656.957 789.899 656.945 790.058 656.931C790.538 656.86 791.013 656.762 791.478 656.64C791.58 656.612 791.682 656.582 791.783 656.551C791.549 656.64 791.559 656.64 791.811 656.541C792.034 656.442 792.255 656.351 792.47 656.243C792.56 656.195 793.137 655.833 792.765 656.095C792.953 655.964 793.131 655.823 793.297 655.673C793.331 655.642 793.365 655.611 793.398 655.579C793.414 655.557 793.45 655.513 793.504 655.448C793.529 655.399 793.717 655.094 793.772 655.021C793.813 654.908 793.928 654.618 793.945 654.565C794.022 654.319 794.079 654.072 794.141 653.823C794.152 653.778 794.161 653.745 794.168 653.722C794.169 653.696 794.172 653.658 794.176 653.605C794.199 653.365 794.226 653.127 794.238 652.886C794.252 652.602 794.241 652.318 794.206 652.036C794.203 652.015 794.201 651.988 794.2 651.959C794.178 651.775 794.14 651.593 794.087 651.413C793.838 650.532 793.645 649.641 793.511 648.744C791.86 649.135 790.164 649.327 788.459 649.314Z" fill="#211715"/>
<path d="M754.58 577.005C754.58 579.223 754.471 580.674 754.528 582.89C754.479 585.328 755.357 587.694 756.985 589.509C758.403 590.883 760.534 591.35 762.4 591.734C765.328 592.365 768.301 592.766 771.291 592.934C777.452 593.224 783.596 592.296 789.662 591.326C792.094 590.936 794.847 590.609 796.904 589.126C799.288 587.409 799.298 584.501 799.379 581.847C799.741 569.962 800.522 558.036 798.709 546.225C797.857 540.68 796.757 534.51 792.818 530.24C789.388 526.522 784.584 526.002 779.812 526.666C774.11 527.459 768.553 529.071 763.312 531.452C760.757 532.816 758.598 534.818 757.046 537.263C754.988 540.16 753.205 543.243 751.721 546.472C751.468 546.933 751.401 547.474 751.534 547.983C751.668 548.492 751.991 548.93 752.438 549.208C752.897 549.472 753.441 549.544 753.953 549.41C754.465 549.276 754.903 548.946 755.174 548.491C756.362 545.926 757.732 543.449 759.274 541.079C760.615 539.027 762.117 536.754 764.259 535.457C765.712 534.668 767.245 534.037 768.832 533.574C771.137 532.789 773.475 532.105 775.844 531.522C779.634 530.59 784.509 529.338 788.114 531.495C792.114 533.895 793.305 539.16 794.159 543.387C796.225 553.607 795.991 564.031 795.633 574.396C795.533 577.314 795.436 580.232 795.343 583.15C795.316 583.968 795.371 585.125 794.743 585.765C794.047 586.276 793.239 586.613 792.387 586.749C789.776 587.362 787.129 587.813 784.462 588.101C781.801 588.482 779.126 588.785 776.44 588.917C773.546 589.078 770.643 588.984 767.765 588.634C765.292 588.441 762.856 587.922 760.519 587.091C759.902 586.813 759.411 586.313 759.145 585.691C758.747 584.819 758.536 583.873 758.527 582.914C758.47 580.691 758.542 578.988 758.543 576.763C752.618 573.263 754.58 577.005 754.58 577.005Z" fill="#211715"/>
<path d="M758.543 576.763C758.543 576.763 742.683 552.237 737.863 536.5C735.26 528 734.863 518.5 737.043 516.763C739.64 514.694 742.804 520.35 750.543 532.215C750.543 532.215 753.535 537 755.535 539.5C757.535 542 757.226 535.263 755.842 534.337C754.033 533.126 736.043 494.763 732.543 523.263C731.782 531.694 737.667 556.522 754.58 577.005L758.543 576.763Z" fill="#211715"/>
<path d="M751.721 546.472C752.829 544.061 754.104 541.732 755.535 539.5C753.535 537 750.543 532.215 750.543 532.215C747.653 535.401 742.663 536.5 737.863 536.5C742.683 552.237 758.543 576.763 758.543 576.763C758.542 578.988 758.47 580.691 758.527 582.914C758.536 583.873 758.747 584.819 759.145 585.691C759.411 586.313 759.902 586.813 760.519 587.091C762.856 587.922 765.292 588.441 767.765 588.634C770.643 588.984 773.546 589.078 776.44 588.917C779.126 588.785 781.801 588.482 784.462 588.101C787.129 587.813 789.776 587.362 792.387 586.749C793.239 586.613 794.047 586.276 794.743 585.765C795.371 585.125 795.316 583.968 795.343 583.15C795.436 580.232 795.533 577.314 795.633 574.396C795.991 564.031 796.225 553.607 794.159 543.387C793.305 539.16 792.114 533.895 788.114 531.495C784.509 529.338 779.634 530.59 775.844 531.522C773.475 532.105 771.137 532.789 768.832 533.574C767.245 534.037 765.712 534.668 764.259 535.457C762.117 536.754 760.615 539.027 759.274 541.079C757.732 543.449 756.362 545.926 755.174 548.491C754.903 548.946 754.465 549.276 753.953 549.41C753.441 549.544 752.897 549.472 752.438 549.208C751.991 548.93 751.668 548.492 751.534 547.983C751.401 547.474 751.468 546.933 751.721 546.472Z" fill="white"/>
<path d="M786.833 529.011C787.934 527.429 789.189 525.96 790.579 524.626C792.121 522.967 793.533 521.192 794.804 519.317C797.391 515.382 798.803 510.792 798.873 506.083C798.843 502.068 797.797 498.126 795.834 494.624C793.871 491.122 791.054 488.174 787.645 486.053C780.672 481.714 771.788 481.853 764.583 485.581C760.709 487.65 757.441 490.694 755.101 494.412C752.762 498.129 751.432 502.393 751.243 506.781C750.766 516.697 757.106 528.181 768.231 527.844C770.799 527.766 770.81 523.766 768.231 523.844C759.993 524.095 755.385 515.729 755.221 508.425C755.124 504.704 756.003 501.023 757.772 497.748C759.153 495.189 761.04 492.949 763.308 491.157C763.943 490.655 764.608 490.188 765.301 489.759C771.078 486.274 778.58 485.623 784.592 488.899C787.457 490.461 789.891 492.708 791.677 495.439C793.463 498.17 794.545 501.301 794.827 504.552C795.085 509.132 793.825 513.669 791.241 517.459C790.004 519.226 788.635 520.898 787.147 522.459C786.918 522.683 786.692 522.911 786.47 523.143C785.332 524.332 784.298 525.618 783.379 526.986C782.07 529.209 785.527 531.224 786.833 529.005V529.011Z" fill="#211715"/>
<path d="M759.718 492.968C763.001 498.207 767.376 502.676 772.545 506.068C773.004 506.332 773.548 506.404 774.06 506.27C774.572 506.136 775.01 505.806 775.281 505.351C775.537 504.89 775.605 504.348 775.471 503.838C775.337 503.329 775.012 502.89 774.563 502.614C774.507 502.577 774.45 502.54 774.394 502.503C773.852 502.142 773.318 501.77 772.791 501.386L772.379 501.079L772.216 500.955C772.321 501.038 772.322 501.038 772.216 500.955C771.919 500.723 771.626 500.487 771.337 500.246C770.256 499.35 769.223 498.398 768.242 497.394C767.259 496.394 766.342 495.331 765.46 494.235L765.333 494.074C765.415 494.18 765.415 494.181 765.333 494.074C765.229 493.941 765.126 493.804 765.024 493.664C764.82 493.389 764.62 493.112 764.424 492.832C764.038 492.283 763.666 491.725 763.308 491.157C763.264 491.087 763.22 491.018 763.177 490.948C762.909 490.49 762.471 490.157 761.957 490.023C761.444 489.888 760.899 489.963 760.44 490.231C759.982 490.498 759.65 490.937 759.515 491.45C759.38 491.963 759.455 492.509 759.723 492.967L759.718 492.968Z" fill="#211715"/>
<path d="M774.426 506.533C774.526 506.507 775.014 506.452 774.526 506.488C774.686 506.476 774.842 506.463 775.003 506.463C775.164 506.463 775.322 506.475 775.481 506.491C775.211 506.463 775.272 506.462 775.5 506.516C775.656 506.553 775.806 506.616 775.961 506.652C776.181 506.702 775.678 506.487 776.001 506.666C776.141 506.744 776.285 506.814 776.421 506.9C776.521 506.965 776.821 507.261 776.533 506.966C776.643 507.078 776.767 507.19 776.881 507.298C777.171 507.572 776.745 507.024 776.971 507.398C777.041 507.514 777.116 507.626 777.181 507.746C777.223 507.822 777.261 507.899 777.297 507.978C777.224 507.8 777.213 507.778 777.262 507.913C777.311 508.048 777.355 508.197 777.391 508.341C777.427 508.485 777.491 508.878 777.448 508.518C777.483 508.884 777.49 509.251 777.469 509.618C777.454 510.047 777.55 509.361 777.445 509.818C777.41 509.969 777.382 510.118 777.345 510.27C777.298 510.45 777.243 510.628 777.182 510.803C777.136 510.935 777.017 511.184 777.14 510.927C776.979 511.257 776.795 511.576 776.591 511.882C776.275 512.364 776.83 511.624 776.455 512.069C776.333 512.213 776.21 512.354 776.081 512.492C775.842 512.745 775.589 512.985 775.325 513.211C775.237 513.286 774.988 513.483 775.209 513.311C775.057 513.426 774.9 513.535 774.741 513.64C774.426 513.849 774.1 514.04 773.763 514.211C773.598 514.296 773.43 514.378 773.263 514.45C773.583 514.315 773.152 514.48 773.063 514.513C772.81 514.583 772.573 514.702 772.365 514.863C772.158 515.025 771.985 515.226 771.855 515.454C771.725 515.683 771.642 515.934 771.61 516.195C771.577 516.456 771.597 516.72 771.666 516.974C771.736 517.227 771.855 517.464 772.017 517.671C772.178 517.878 772.379 518.052 772.607 518.181C772.836 518.311 773.088 518.394 773.348 518.427C773.609 518.459 773.874 518.44 774.127 518.37C775.319 517.949 776.466 517.339 777.486 516.57C779.801 514.824 781.458 512.261 781.494 509.245C781.524 508.18 781.3 507.124 780.838 506.163C780.377 505.203 779.693 504.367 778.843 503.725C778.065 503.16 777.171 502.773 776.227 502.592C775.621 502.476 775.005 502.446 774.394 502.503C774.052 502.534 773.712 502.593 773.377 502.678C772.868 502.823 772.436 503.162 772.174 503.622C771.912 504.082 771.841 504.626 771.977 505.138C772.126 505.644 772.466 506.073 772.925 506.334C773.384 506.595 773.926 506.668 774.437 506.538L774.426 506.533Z" fill="#211715"/>
<path d="M773.654 518.012C776.419 522.289 780.585 525.471 785.439 527.012C785.951 527.149 786.496 527.078 786.956 526.816C787.416 526.554 787.755 526.122 787.899 525.612C788.028 525.101 787.954 524.559 787.693 524.101C787.432 523.642 787.005 523.302 786.499 523.152C786.489 523.149 786.48 523.146 786.47 523.143C785.998 522.986 785.535 522.808 785.071 522.63C785.037 522.617 785.003 522.604 784.969 522.591C785.011 522.607 785.044 522.62 785.071 522.63C785.328 522.728 784.908 522.564 784.852 522.539C784.752 522.495 784.652 522.451 784.558 522.405C784.315 522.293 784.074 522.175 783.836 522.053C782.871 521.541 781.943 520.963 781.057 520.324C781.046 520.316 781.036 520.309 781.028 520.304C780.867 520.195 781.401 520.603 781.018 520.296C780.918 520.213 780.811 520.129 780.708 520.044C780.503 519.874 780.301 519.699 780.103 519.521C779.703 519.161 779.32 518.784 778.955 518.391C778.77 518.191 778.589 517.991 778.413 517.785C778.325 517.685 778.237 517.577 778.151 517.471C778.133 517.449 778.032 517.321 777.98 517.257C777.941 517.208 777.929 517.195 778.001 517.288C778.096 517.412 778.046 517.345 777.98 517.257C777.93 517.191 777.872 517.113 777.859 517.095C777.777 516.984 777.696 516.872 777.616 516.758C777.572 516.696 777.529 516.633 777.486 516.57C777.356 516.379 777.229 516.187 777.105 515.993C776.972 515.766 776.797 515.568 776.587 515.409C776.378 515.25 776.14 515.134 775.886 515.067C775.632 515.001 775.367 514.985 775.107 515.02C774.846 515.056 774.596 515.143 774.369 515.275C774.142 515.408 773.944 515.583 773.785 515.793C773.626 516.002 773.51 516.24 773.443 516.494C773.377 516.748 773.361 517.013 773.396 517.273C773.432 517.534 773.518 517.784 773.651 518.011L773.654 518.012Z" fill="#211715"/>
<path d="M765.301 489.759C764.608 490.188 763.943 490.655 763.308 491.157C763.666 491.725 764.038 492.283 764.424 492.832C764.62 493.112 764.82 493.389 765.024 493.664C765.126 493.804 765.229 493.941 765.333 494.074L765.46 494.235C766.342 495.331 767.259 496.394 768.242 497.394C769.223 498.398 770.256 499.35 771.337 500.246C771.626 500.487 771.919 500.723 772.216 500.955L772.379 501.079L772.791 501.386C773.318 501.77 773.852 502.142 774.394 502.503C775.005 502.446 775.621 502.476 776.227 502.592C777.171 502.773 778.065 503.16 778.843 503.725C779.693 504.367 780.377 505.203 780.838 506.163C781.3 507.124 781.524 508.18 781.494 509.245C781.458 512.261 779.801 514.824 777.486 516.57C777.529 516.633 777.572 516.696 777.616 516.758C777.696 516.872 777.777 516.984 777.859 517.095C777.872 517.113 777.93 517.191 777.98 517.257C778.032 517.321 778.133 517.449 778.151 517.471C778.237 517.577 778.325 517.685 778.413 517.785C778.589 517.991 778.77 518.191 778.955 518.391C779.32 518.784 779.703 519.161 780.103 519.521C780.301 519.699 780.503 519.874 780.708 520.044C780.811 520.129 780.918 520.213 781.018 520.296C781.021 520.299 781.025 520.301 781.028 520.304C781.036 520.309 781.046 520.316 781.057 520.324C781.943 520.963 782.871 521.541 783.836 522.053C784.074 522.175 784.315 522.293 784.558 522.405C784.652 522.451 784.752 522.495 784.852 522.539C784.908 522.564 785.328 522.728 785.071 522.63C785.535 522.808 785.998 522.986 786.47 523.143C786.692 522.911 786.918 522.683 787.147 522.459C788.635 520.898 790.004 519.226 791.241 517.459C793.825 513.669 795.085 509.132 794.827 504.552C794.545 501.301 793.463 498.17 791.677 495.439C789.891 492.708 787.457 490.461 784.592 488.899C778.58 485.623 771.078 486.274 765.301 489.759Z" fill="#211715"/>
</g>
<defs>
<clipPath id="clip0_0_1">
<rect width="341.863" height="334.048" fill="white" transform="translate(0 315)"/>
</clipPath>
<clipPath id="clip1_0_1">
<rect width="341.863" height="334.048" fill="white" transform="translate(458 331)"/>
</clipPath>
</defs>
</svg>
